<svg width="218" height="28" viewBox="0 0 218 28" fill="none" xmlns="http://www.w3.org/2000/svg" preserveAspectRatio="none">
<path d="M0 15.0586C0 10.1237 1.08724 6.38021 3.26172 3.82812C5.4362 1.27604 8.67839 0 12.9883 0C14.1732 0 15.3841 0.0976562 16.6211 0.292969C17.8711 0.488281 19.0234 0.77474 20.0781 1.15234L20.4883 6.81641L17.4609 7.24609L15.8008 3.35938C15.3841 3.21615 14.8698 3.10547 14.2578 3.02734C13.6589 2.94922 13.0599 2.91016 12.4609 2.91016C11.4844 2.91016 10.5013 3.05339 9.51172 3.33984C8.53516 3.6263 7.70182 3.99089 7.01172 4.43359C6.6862 5.63151 6.41276 7.02474 6.19141 8.61328C5.97005 10.2018 5.85938 11.8359 5.85938 13.5156V16.1133C5.85938 18.8216 6.4974 20.8789 7.77344 22.2852C9.0625 23.6784 10.9701 24.375 13.4961 24.375C14.6029 24.375 15.7747 24.1927 17.0117 23.8281C18.2617 23.4635 19.4401 22.9688 20.5469 22.3438V24.8047C19.388 25.5599 18.0404 26.1654 16.5039 26.6211C14.9805 27.0638 13.4245 27.2852 11.8359 27.2852C7.94271 27.2852 4.99349 26.3932 2.98828 24.6094C0.996094 22.8255 0 20.2214 0 16.7969V15.0586Z" fill="black"/>
<path d="M35.3711 27.2852C31.4258 27.2852 28.457 26.3932 26.4648 24.6094C24.4727 22.8255 23.4766 20.1562 23.4766 16.6016V15.0586C23.4766 9.92839 24.5573 6.13932 26.7188 3.69141C28.8802 1.23047 32.0182 0 36.1328 0C40.0651 0 43.0404 0.891927 45.0586 2.67578C47.0898 4.45964 48.1055 7.13542 48.1055 10.7031V12.2266C48.1055 17.2396 47.0443 21.0026 44.9219 23.5156C42.7995 26.0286 39.6159 27.2852 35.3711 27.2852ZM42.2461 11.5625C42.2461 8.73698 41.6667 6.58854 40.5078 5.11719C39.362 3.64583 37.6628 2.91016 35.4102 2.91016C34.4336 2.91016 33.5026 3.04036 32.6172 3.30078C31.7448 3.5612 31.0352 3.8737 30.4883 4.23828C30.2539 5.07161 30 6.32812 29.7266 8.00781C29.4661 9.6875 29.3359 11.3932 29.3359 13.125V15.7227C29.3359 18.444 29.9674 20.5664 31.2305 22.0898C32.5065 23.6133 34.1602 24.375 36.1914 24.375C37.2331 24.375 38.2031 24.2318 39.1016 23.9453C40.013 23.6589 40.6836 23.3529 41.1133 23.0273C41.3867 22.0508 41.6406 20.7292 41.875 19.0625C42.1224 17.3828 42.2461 15.7487 42.2461 14.1602V11.5625Z" fill="black"/>
<path d="M53.418 3.39844L50.625 2.73438L51.0156 0.429688H61.1719L72.7344 21.9336H73.0469V3.39844L70.2344 2.73438L70.625 0.429688H79.3555L79.7461 2.73438L76.9727 3.39844V26.8555H69.1797L57.6367 5.37109H57.3242V23.8867L60.4883 24.5508L60.0977 26.8555H51.0156L50.625 24.5508L53.418 23.8867V3.39844Z" fill="black"/>
<path d="M84.3164 3.39844L81.5234 2.73438L81.9141 0.429688H93.9844C98.112 0.429688 101.224 1.41276 103.32 3.37891C105.43 5.34505 106.484 8.1901 106.484 11.9141V13.4375C106.484 17.5651 105.371 20.8333 103.145 23.2422C100.931 25.651 97.9427 26.8555 94.1797 26.8555H81.9141L81.5234 24.5508L84.3164 23.8867V3.39844ZM90.1758 3.33984V23.9453H93.3203C94.0885 23.9453 94.8893 23.8932 95.7227 23.7891C96.556 23.6849 97.3047 23.5482 97.9688 23.3789C98.6458 22.4414 99.2578 21.1784 99.8047 19.5898C100.352 18.0013 100.625 16.3737 100.625 14.707V12.8711C100.625 9.64193 99.974 7.24609 98.6719 5.68359C97.3698 4.12109 95.3711 3.33984 92.6758 3.33984H90.1758Z" fill="black"/>
<path d="M112.168 3.39844L109.375 2.73438L109.766 0.429688H120.41L120.801 2.73438L118.027 3.39844V23.8867L120.801 24.5508L120.41 26.8555H109.766L109.375 24.5508L112.168 23.8867V3.39844Z" fill="black"/>
<path d="M130.938 3.33984H126.348L125.137 6.66016L122.227 6.48438L122.52 0.429688H145.215L145.488 6.48438L142.598 6.66016L141.367 3.33984H136.797V23.8867L139.59 24.5508L139.199 26.8555H128.535L128.145 24.5508L130.938 23.8867V3.33984Z" fill="black"/>
<path d="M149.785 3.39844L146.992 2.73438L147.383 0.429688H158.027L158.418 2.73438L155.645 3.39844V23.8867L158.418 24.5508L158.027 26.8555H147.383L146.992 24.5508L149.785 23.8867V3.39844Z" fill="black"/>
<path d="M173.262 27.2852C169.316 27.2852 166.348 26.3932 164.355 24.6094C162.363 22.8255 161.367 20.1562 161.367 16.6016V15.0586C161.367 9.92839 162.448 6.13932 164.609 3.69141C166.771 1.23047 169.909 0 174.023 0C177.956 0 180.931 0.891927 182.949 2.67578C184.98 4.45964 185.996 7.13542 185.996 10.7031V12.2266C185.996 17.2396 184.935 21.0026 182.812 23.5156C180.69 26.0286 177.507 27.2852 173.262 27.2852ZM180.137 11.5625C180.137 8.73698 179.557 6.58854 178.398 5.11719C177.253 3.64583 175.553 2.91016 173.301 2.91016C172.324 2.91016 171.393 3.04036 170.508 3.30078C169.635 3.5612 168.926 3.8737 168.379 4.23828C168.145 5.07161 167.891 6.32812 167.617 8.00781C167.357 9.6875 167.227 11.3932 167.227 13.125V15.7227C167.227 18.444 167.858 20.5664 169.121 22.0898C170.397 23.6133 172.051 24.375 174.082 24.375C175.124 24.375 176.094 24.2318 176.992 23.9453C177.904 23.6589 178.574 23.3529 179.004 23.0273C179.277 22.0508 179.531 20.7292 179.766 19.0625C180.013 17.3828 180.137 15.7487 180.137 14.1602V11.5625Z" fill="black"/>
<path d="M191.309 3.39844L188.516 2.73438L188.906 0.429688H199.062L210.625 21.9336H210.938V3.39844L208.125 2.73438L208.516 0.429688H217.246L217.637 2.73438L214.863 3.39844V26.8555H207.07L195.527 5.37109H195.215V23.8867L198.379 24.5508L197.988 26.8555H188.906L188.516 24.5508L191.309 23.8867V3.39844Z" fill="black"/>
</svg>
