<svg width="31" height="115" viewBox="0 0 31 115" fill="none" xmlns="http://www.w3.org/2000/svg" preserveAspectRatio="none">
<path d="M14.4922 105.566H23.9453V97.7344L20.1758 96.1133L20.625 93.4961L26.8555 93.9648V113.828L24.5508 114.219L23.8867 111.426H3.39844L2.73438 114.219L0.429688 113.828V94.5508L6.67969 94.082L7.10938 96.6797L3.33984 98.3008V105.566H11.582V99.9609L9.39453 99.2969L9.78516 96.9727H16.3086L16.6992 99.2969L14.4922 99.9609V105.566Z" fill="black"/>
<path d="M27.2852 78.7305C27.2852 82.6628 26.3932 85.6315 24.6094 87.6367C22.8125 89.6289 20.1432 90.625 16.6016 90.625H15.0586C10.0326 90.625 6.26953 89.5703 3.76953 87.4609C1.25651 85.3385 0 82.1745 0 77.9688C0 74.0365 0.891927 71.0612 2.67578 69.043C4.45964 67.0117 7.13542 65.9961 10.7031 65.9961H12.2266C15.2474 65.9961 17.8125 66.3802 19.9219 67.1484C22.0312 67.9036 23.6979 69.069 24.9219 70.6445C26.0807 70.0326 26.8359 69.4792 27.1875 68.9844C27.5521 68.4766 27.7344 67.8971 27.7344 67.2461C27.7344 66.9336 27.6823 66.5495 27.5781 66.0938C27.487 65.625 27.3763 65.2344 27.2461 64.9219H29.5898C29.8893 65.4297 30.1367 66.0938 30.332 66.9141C30.5404 67.7214 30.6445 68.5352 30.6445 69.3555C30.6445 70.7357 30.3646 71.901 29.8047 72.8516C29.2448 73.8021 28.3333 74.5898 27.0703 75.2148L26.9531 75.2734C27.1745 76.3542 27.2852 77.5065 27.2852 78.7305ZM11.5625 71.8555C8.67188 71.8555 6.51042 72.4414 5.07812 73.6133C3.63281 74.7721 2.91016 76.4648 2.91016 78.6914C2.91016 79.6289 3.04036 80.5404 3.30078 81.4258C3.54818 82.3112 3.86068 83.0404 4.23828 83.6133C5.29297 83.8997 6.66016 84.1667 8.33984 84.4141C10.0065 84.6484 11.6016 84.7656 13.125 84.7656H15.7227C16.0482 84.7656 16.3607 84.7591 16.6602 84.7461C16.9596 84.7331 17.2461 84.707 17.5195 84.668C16.8034 84.3034 16.2435 83.7305 15.8398 82.9492C15.4362 82.168 15.2344 81.3021 15.2344 80.3516C15.2344 78.6849 15.6576 77.2396 16.5039 76.0156C17.3372 74.7786 18.6849 73.6979 20.5469 72.7734L21.0352 72.5391C20.2018 72.3828 19.1732 72.2331 17.9492 72.0898C16.7122 71.9336 15.4492 71.8555 14.1602 71.8555H11.5625ZM19.9609 83.6133C20.2995 83.6133 20.612 83.5807 20.8984 83.5156C21.1849 83.4505 21.4648 83.3268 21.7383 83.1445C22.6367 82.4935 23.3008 81.7122 23.7305 80.8008C24.1602 79.8763 24.375 78.9128 24.375 77.9102C24.375 77.6758 24.3685 77.4479 24.3555 77.2266C24.3424 77.0052 24.3229 76.7904 24.2969 76.582L22.5 77.4414C21.0547 78.1445 19.9674 78.8411 19.2383 79.5312C18.5091 80.2214 18.1445 80.9505 18.1445 81.7188C18.1445 82.3438 18.3268 82.819 18.6914 83.1445C19.056 83.457 19.4792 83.6133 19.9609 83.6133Z" fill="black"/>
<path d="M16.1914 55.3125C18.8997 55.3125 20.944 54.7982 22.3242 53.7695C23.6914 52.7409 24.375 51.2826 24.375 49.3945C24.375 48.444 24.2708 47.5521 24.0625 46.7188C23.8411 45.8854 23.5807 45.2279 23.2812 44.7461C22.474 44.3164 21.4909 43.9583 20.332 43.6719C19.1602 43.3724 17.9427 43.2227 16.6797 43.2227H3.39844L2.73438 46.0156L0.429688 45.625V37.1094L2.73438 36.7188L3.39844 39.4922H16.2305C19.9544 39.4922 22.7279 40.3776 24.5508 42.1484C26.3737 43.9193 27.2852 46.6536 27.2852 50.3516C27.2852 54.0885 26.4453 56.8294 24.7656 58.5742C23.0859 60.306 20.5859 61.1719 17.2656 61.1719H3.39844L2.73438 63.9844L0.429688 63.5938V52.9297L2.73438 52.5391L3.39844 55.3125H16.1914Z" fill="black"/>
<path d="M3.39844 32.5195L2.73438 35.3125L0.429688 34.9219V24.2773L2.73438 23.8867L3.39844 26.6602H23.8867L24.5508 23.8867L26.8555 24.2773V34.9219L24.5508 35.3125L23.8867 32.5195H3.39844Z" fill="black"/>
<path d="M3.39844 18.457L2.73438 21.25L0.429688 20.8594V9.62891C0.429688 6.42578 1.01562 4.02344 2.1875 2.42188C3.35938 0.807292 5.09115 0 7.38281 0C9.84375 0 11.7839 0.865885 13.2031 2.59766C14.6094 4.31641 15.3125 6.52344 15.3125 9.21875V12.5977H23.8867L24.5508 8.45703L26.8555 8.84766V20.8594L24.5508 21.25L23.8867 18.457H3.39844ZM3.33984 12.5977H12.4023V10.4492C12.4023 9.69401 12.3503 8.95182 12.2461 8.22266C12.1289 7.48047 11.9987 6.90104 11.8555 6.48438C11.3477 6.3151 10.7357 6.1849 10.0195 6.09375C9.30339 5.98958 8.61328 5.9375 7.94922 5.9375C6.38672 5.9375 5.22786 6.3737 4.47266 7.24609C3.71745 8.10547 3.33984 9.36849 3.33984 11.0352V12.5977Z" fill="black"/>
</svg>
