<svg width="101" height="29" viewBox="0 0 101 29" fill="none" xmlns="http://www.w3.org/2000/svg" preserveAspectRatio="none">
<mask id="path-1-outside-1_1_16" maskUnits="userSpaceOnUse" x="-0.224731" y="-0.574219" width="101" height="29" fill="black">
<rect fill="white" x="-0.224731" y="-0.574219" width="101" height="29"/>
<path d="M9.7948 15.0625V24.5156H17.6268L19.2479 20.7461L21.8651 21.1953L21.3964 27.4258H1.53308L1.14246 25.1211L3.93542 24.457V3.96875L1.14246 3.30469L1.53308 1H20.8104L21.2792 7.25L18.6815 7.67969L17.0604 3.91016H9.7948V12.1523H15.4003L16.0643 9.96484L18.3885 10.3555V16.8789L16.0643 17.2695L15.4003 15.0625H9.7948ZM41.9003 25.1211L44.3612 24.5938L39.5175 17.25L34.6151 24.5938L36.9979 25.1211L36.6073 27.4258H28.3846L27.994 25.1211L30.3964 24.4766L37.369 13.9883L30.7284 3.94922L28.3456 3.32422L28.7362 1H39.3026L39.6932 3.32422L37.2323 3.83203L41.6659 10.5703L46.1776 3.83203L43.7557 3.32422L44.1464 1H52.4471L52.8378 3.32422L50.4159 3.94922L43.8143 13.832L50.8456 24.4766L53.2479 25.1211L52.8573 27.4258H42.2909L41.9003 25.1211ZM61.8182 3.96875L59.0253 3.30469L59.4159 1H70.0604L70.451 3.30469L67.6776 3.96875V24.457L70.451 25.1211L70.0604 27.4258H59.4159L59.0253 25.1211L61.8182 24.457V3.96875ZM84.5878 3.91016H79.9979L78.787 7.23047L75.8768 7.05469L76.1698 1H98.8651L99.1385 7.05469L96.2479 7.23047L95.0175 3.91016H90.4471V24.457L93.2401 25.1211L92.8495 27.4258H82.1854L81.7948 25.1211L84.5878 24.457V3.91016Z"/>
</mask>
<path d="M9.7948 15.0625V24.5156H17.6268L19.2479 20.7461L21.8651 21.1953L21.3964 27.4258H1.53308L1.14246 25.1211L3.93542 24.457V3.96875L1.14246 3.30469L1.53308 1H20.8104L21.2792 7.25L18.6815 7.67969L17.0604 3.91016H9.7948V12.1523H15.4003L16.0643 9.96484L18.3885 10.3555V16.8789L16.0643 17.2695L15.4003 15.0625H9.7948ZM41.9003 25.1211L44.3612 24.5938L39.5175 17.25L34.6151 24.5938L36.9979 25.1211L36.6073 27.4258H28.3846L27.994 25.1211L30.3964 24.4766L37.369 13.9883L30.7284 3.94922L28.3456 3.32422L28.7362 1H39.3026L39.6932 3.32422L37.2323 3.83203L41.6659 10.5703L46.1776 3.83203L43.7557 3.32422L44.1464 1H52.4471L52.8378 3.32422L50.4159 3.94922L43.8143 13.832L50.8456 24.4766L53.2479 25.1211L52.8573 27.4258H42.2909L41.9003 25.1211ZM61.8182 3.96875L59.0253 3.30469L59.4159 1H70.0604L70.451 3.30469L67.6776 3.96875V24.457L70.451 25.1211L70.0604 27.4258H59.4159L59.0253 25.1211L61.8182 24.457V3.96875ZM84.5878 3.91016H79.9979L78.787 7.23047L75.8768 7.05469L76.1698 1H98.8651L99.1385 7.05469L96.2479 7.23047L95.0175 3.91016H90.4471V24.457L93.2401 25.1211L92.8495 27.4258H82.1854L81.7948 25.1211L84.5878 24.457V3.91016Z" fill="#292929"/>
<path d="M9.7948 15.0625V14.0625H8.7948V15.0625H9.7948ZM9.7948 24.5156H8.7948V25.5156H9.7948V24.5156ZM17.6268 24.5156V25.5156H18.2853L18.5455 24.9107L17.6268 24.5156ZM19.2479 20.7461L19.4171 19.7605L18.6405 19.6272L18.3293 20.351L19.2479 20.7461ZM21.8651 21.1953L22.8623 21.2703L22.9305 20.3636L22.0343 20.2097L21.8651 21.1953ZM21.3964 27.4258V28.4258H22.324L22.3935 27.5008L21.3964 27.4258ZM1.53308 27.4258L0.547142 27.5929L0.688311 28.4258H1.53308V27.4258ZM1.14246 25.1211L0.911142 24.1482L1.64604e-05 24.3648L0.156517 25.2882L1.14246 25.1211ZM3.93542 24.457L4.16674 25.4299L4.93542 25.2471V24.457H3.93542ZM3.93542 3.96875H4.93542V3.17864L4.16674 2.99587L3.93542 3.96875ZM1.14246 3.30469L0.156517 3.13758L1.64604e-05 4.06094L0.911142 4.27757L1.14246 3.30469ZM1.53308 1V0H0.688311L0.547142 0.832892L1.53308 1ZM20.8104 1L21.8076 0.92521L21.7382 0H20.8104V1ZM21.2792 7.25L21.4424 8.23659L22.3448 8.08732L22.2764 7.17521L21.2792 7.25ZM18.6815 7.67969L17.7629 8.07476L18.0722 8.79406L18.8447 8.66628L18.6815 7.67969ZM17.0604 3.91016L17.9791 3.51509L17.7189 2.91016H17.0604V3.91016ZM9.7948 3.91016V2.91016H8.7948V3.91016H9.7948ZM9.7948 12.1523H8.7948V13.1523H9.7948V12.1523ZM15.4003 12.1523V13.1523H16.1418L16.3571 12.4428L15.4003 12.1523ZM16.0643 9.96484L16.2301 8.97867L15.3629 8.83293L15.1075 9.67436L16.0643 9.96484ZM18.3885 10.3555H19.3885V9.50951L18.5543 9.3693L18.3885 10.3555ZM18.3885 16.8789L18.5543 17.8651L19.3885 17.7249V16.8789H18.3885ZM16.0643 17.2695L15.1067 17.5577L15.3607 18.4018L16.2301 18.2557L16.0643 17.2695ZM15.4003 15.0625L16.3579 14.7744L16.1437 14.0625H15.4003V15.0625ZM9.7948 15.0625H8.7948V24.5156H9.7948H10.7948V15.0625H9.7948ZM9.7948 24.5156V25.5156H17.6268V24.5156V23.5156H9.7948V24.5156ZM17.6268 24.5156L18.5455 24.9107L20.1666 21.1412L19.2479 20.7461L18.3293 20.351L16.7082 24.1206L17.6268 24.5156ZM19.2479 20.7461L19.0788 21.7317L21.6959 22.1809L21.8651 21.1953L22.0343 20.2097L19.4171 19.7605L19.2479 20.7461ZM21.8651 21.1953L20.8679 21.1203L20.3992 27.3508L21.3964 27.4258L22.3935 27.5008L22.8623 21.2703L21.8651 21.1953ZM21.3964 27.4258V26.4258H1.53308V27.4258V28.4258H21.3964V27.4258ZM1.53308 27.4258L2.51902 27.2587L2.12839 24.954L1.14246 25.1211L0.156517 25.2882L0.547142 27.5929L1.53308 27.4258ZM1.14246 25.1211L1.37377 26.094L4.16674 25.4299L3.93542 24.457L3.70411 23.4842L0.911142 24.1482L1.14246 25.1211ZM3.93542 24.457H4.93542V3.96875H3.93542H2.93542V24.457H3.93542ZM3.93542 3.96875L4.16674 2.99587L1.37377 2.33181L1.14246 3.30469L0.911142 4.27757L3.70411 4.94163L3.93542 3.96875ZM1.14246 3.30469L2.12839 3.4718L2.51902 1.16711L1.53308 1L0.547142 0.832892L0.156517 3.13758L1.14246 3.30469ZM1.53308 1V2H20.8104V1V0H1.53308V1ZM20.8104 1L19.8132 1.07479L20.282 7.32479L21.2792 7.25L22.2764 7.17521L21.8076 0.92521L20.8104 1ZM21.2792 7.25L21.116 6.26341L18.5183 6.69309L18.6815 7.67969L18.8447 8.66628L21.4424 8.23659L21.2792 7.25ZM18.6815 7.67969L19.6002 7.28462L17.9791 3.51509L17.0604 3.91016L16.1418 4.30522L17.7629 8.07476L18.6815 7.67969ZM17.0604 3.91016V2.91016H9.7948V3.91016V4.91016H17.0604V3.91016ZM9.7948 3.91016H8.7948V12.1523H9.7948H10.7948V3.91016H9.7948ZM9.7948 12.1523V13.1523H15.4003V12.1523V11.1523H9.7948V12.1523ZM15.4003 12.1523L16.3571 12.4428L17.0212 10.2553L16.0643 9.96484L15.1075 9.67436L14.4434 11.8619L15.4003 12.1523ZM16.0643 9.96484L15.8986 10.951L18.2228 11.3416L18.3885 10.3555L18.5543 9.3693L16.2301 8.97867L16.0643 9.96484ZM18.3885 10.3555H17.3885V16.8789H18.3885H19.3885V10.3555H18.3885ZM18.3885 16.8789L18.2228 15.8927L15.8986 16.2834L16.0643 17.2695L16.2301 18.2557L18.5543 17.8651L18.3885 16.8789ZM16.0643 17.2695L17.0219 16.9814L16.3579 14.7744L15.4003 15.0625L14.4427 15.3506L15.1067 17.5577L16.0643 17.2695ZM15.4003 15.0625V14.0625H9.7948V15.0625V16.0625H15.4003V15.0625ZM41.9003 25.1211L41.6907 24.1433L40.7543 24.344L40.9143 25.2882L41.9003 25.1211ZM44.3612 24.5938L44.5707 25.5716L46.0018 25.2649L45.196 24.0432L44.3612 24.5938ZM39.5175 17.25L40.3522 16.6994L39.5225 15.4414L38.6857 16.6948L39.5175 17.25ZM34.6151 24.5938L33.7834 24.0385L32.9718 25.2543L34.399 25.5701L34.6151 24.5938ZM36.9979 25.1211L37.9839 25.2882L38.1428 24.3503L37.214 24.1447L36.9979 25.1211ZM36.6073 27.4258V28.4258H37.4521L37.5932 27.5929L36.6073 27.4258ZM28.3846 27.4258L27.3987 27.5929L27.5399 28.4258H28.3846V27.4258ZM27.994 25.1211L27.7349 24.1553L26.856 24.391L27.0081 25.2882L27.994 25.1211ZM30.3964 24.4766L30.6555 25.4424L31.0201 25.3446L31.2291 25.0302L30.3964 24.4766ZM37.369 13.9883L38.2018 14.5419L38.5689 13.9897L38.2031 13.4366L37.369 13.9883ZM30.7284 3.94922L31.5624 3.39752L31.3517 3.07887L30.9821 2.98194L30.7284 3.94922ZM28.3456 3.32422L27.3594 3.15848L27.208 4.05965L28.0919 4.2915L28.3456 3.32422ZM28.7362 1V0H27.8902L27.75 0.834257L28.7362 1ZM39.3026 1L40.2888 0.834257L40.1486 0H39.3026V1ZM39.6932 3.32422L39.8953 4.30359L40.8391 4.10883L40.6794 3.15848L39.6932 3.32422ZM37.2323 3.83203L37.0302 2.85266L35.5868 3.15051L36.3969 4.38169L37.2323 3.83203ZM41.6659 10.5703L40.8305 11.12L41.6586 12.3786L42.4968 11.1267L41.6659 10.5703ZM46.1776 3.83203L47.0085 4.3884L47.8328 3.15734L46.3828 2.85331L46.1776 3.83203ZM43.7557 3.32422L42.7696 3.15848L42.6104 4.1058L43.5505 4.30294L43.7557 3.32422ZM44.1464 1V0H43.3004L43.1602 0.834257L44.1464 1ZM52.4471 1L53.4333 0.834257L53.2931 0H52.4471V1ZM52.8378 3.32422L53.0876 4.2925L53.976 4.06324L53.8239 3.15848L52.8378 3.32422ZM50.4159 3.94922L50.166 2.98094L49.7964 3.07633L49.5843 3.39376L50.4159 3.94922ZM43.8143 13.832L42.9828 13.2766L42.6138 13.8289L42.9799 14.3832L43.8143 13.832ZM50.8456 24.4766L50.0112 25.0277L50.2202 25.3441L50.5865 25.4424L50.8456 24.4766ZM53.2479 25.1211L54.2339 25.2882L54.3859 24.391L53.5071 24.1553L53.2479 25.1211ZM52.8573 27.4258V28.4258H53.7021L53.8432 27.5929L52.8573 27.4258ZM42.2909 27.4258L41.305 27.5929L41.4461 28.4258H42.2909V27.4258ZM41.9003 25.1211L42.1098 26.0989L44.5707 25.5716L44.3612 24.5938L44.1517 23.6159L41.6907 24.1433L41.9003 25.1211ZM44.3612 24.5938L45.196 24.0432L40.3522 16.6994L39.5175 17.25L38.6827 17.8006L43.5264 25.1443L44.3612 24.5938ZM39.5175 17.25L38.6857 16.6948L33.7834 24.0385L34.6151 24.5938L35.4468 25.149L40.3492 17.8052L39.5175 17.25ZM34.6151 24.5938L34.399 25.5701L36.7818 26.0975L36.9979 25.1211L37.214 24.1447L34.8312 23.6174L34.6151 24.5938ZM36.9979 25.1211L36.012 24.954L35.6214 27.2587L36.6073 27.4258L37.5932 27.5929L37.9839 25.2882L36.9979 25.1211ZM36.6073 27.4258V26.4258H28.3846V27.4258V28.4258H36.6073V27.4258ZM28.3846 27.4258L29.3706 27.2587L28.98 24.954L27.994 25.1211L27.0081 25.2882L27.3987 27.5929L28.3846 27.4258ZM27.994 25.1211L28.2531 26.0869L30.6555 25.4424L30.3964 24.4766L30.1372 23.5107L27.7349 24.1553L27.994 25.1211ZM30.3964 24.4766L31.2291 25.0302L38.2018 14.5419L37.369 13.9883L36.5363 13.4347L29.5636 23.9229L30.3964 24.4766ZM37.369 13.9883L38.2031 13.4366L31.5624 3.39752L30.7284 3.94922L29.8944 4.50092L36.535 14.54L37.369 13.9883ZM30.7284 3.94922L30.9821 2.98194L28.5993 2.35694L28.3456 3.32422L28.0919 4.2915L30.4747 4.9165L30.7284 3.94922ZM28.3456 3.32422L29.3318 3.48996L29.7224 1.16574L28.7362 1L27.75 0.834257L27.3594 3.15848L28.3456 3.32422ZM28.7362 1V2H39.3026V1V0H28.7362V1ZM39.3026 1L38.3164 1.16574L38.7071 3.48996L39.6932 3.32422L40.6794 3.15848L40.2888 0.834257L39.3026 1ZM39.6932 3.32422L39.4911 2.34485L37.0302 2.85266L37.2323 3.83203L37.4344 4.8114L39.8953 4.30359L39.6932 3.32422ZM37.2323 3.83203L36.3969 4.38169L40.8305 11.12L41.6659 10.5703L42.5013 10.0207L38.0677 3.28237L37.2323 3.83203ZM41.6659 10.5703L42.4968 11.1267L47.0085 4.3884L46.1776 3.83203L45.3467 3.27566L40.835 10.0139L41.6659 10.5703ZM46.1776 3.83203L46.3828 2.85331L43.961 2.3455L43.7557 3.32422L43.5505 4.30294L45.9724 4.81075L46.1776 3.83203ZM43.7557 3.32422L44.7419 3.48996L45.1325 1.16574L44.1464 1L43.1602 0.834257L42.7696 3.15848L43.7557 3.32422ZM44.1464 1V2H52.4471V1V0H44.1464V1ZM52.4471 1L51.461 1.16574L51.8516 3.48996L52.8378 3.32422L53.8239 3.15848L53.4333 0.834257L52.4471 1ZM52.8378 3.32422L52.5879 2.35594L50.166 2.98094L50.4159 3.94922L50.6658 4.9175L53.0876 4.2925L52.8378 3.32422ZM50.4159 3.94922L49.5843 3.39376L42.9828 13.2766L43.8143 13.832L44.6459 14.3875L51.2474 4.50468L50.4159 3.94922ZM43.8143 13.832L42.9799 14.3832L50.0112 25.0277L50.8456 24.4766L51.68 23.9254L44.6487 13.2809L43.8143 13.832ZM50.8456 24.4766L50.5865 25.4424L52.9888 26.0869L53.2479 25.1211L53.5071 24.1553L51.1047 23.5107L50.8456 24.4766ZM53.2479 25.1211L52.262 24.954L51.8714 27.2587L52.8573 27.4258L53.8432 27.5929L54.2339 25.2882L53.2479 25.1211ZM52.8573 27.4258V26.4258H42.2909V27.4258V28.4258H52.8573V27.4258ZM42.2909 27.4258L43.2768 27.2587L42.8862 24.954L41.9003 25.1211L40.9143 25.2882L41.305 27.5929L42.2909 27.4258ZM61.8182 3.96875H62.8182V3.17864L62.0496 2.99587L61.8182 3.96875ZM59.0253 3.30469L58.0393 3.13758L57.8828 4.06094L58.794 4.27757L59.0253 3.30469ZM59.4159 1V0H58.5711L58.43 0.832892L59.4159 1ZM70.0604 1L71.0464 0.832892L70.9052 0H70.0604V1ZM70.451 3.30469L70.6839 4.2772L71.5932 4.05947L71.437 3.13758L70.451 3.30469ZM67.6776 3.96875L67.4448 2.99624L66.6776 3.17992V3.96875H67.6776ZM67.6776 24.457H66.6776V25.2459L67.4448 25.4295L67.6776 24.457ZM70.451 25.1211L71.437 25.2882L71.5932 24.3663L70.6839 24.1486L70.451 25.1211ZM70.0604 27.4258V28.4258H70.9052L71.0464 27.5929L70.0604 27.4258ZM59.4159 27.4258L58.43 27.5929L58.5711 28.4258H59.4159V27.4258ZM59.0253 25.1211L58.794 24.1482L57.8828 24.3648L58.0393 25.2882L59.0253 25.1211ZM61.8182 24.457L62.0496 25.4299L62.8182 25.2471V24.457H61.8182ZM61.8182 3.96875L62.0496 2.99587L59.2566 2.33181L59.0253 3.30469L58.794 4.27757L61.5869 4.94163L61.8182 3.96875ZM59.0253 3.30469L60.0112 3.4718L60.4018 1.16711L59.4159 1L58.43 0.832892L58.0393 3.13758L59.0253 3.30469ZM59.4159 1V2H70.0604V1V0H59.4159V1ZM70.0604 1L69.0745 1.16711L69.4651 3.4718L70.451 3.30469L71.437 3.13758L71.0464 0.832892L70.0604 1ZM70.451 3.30469L70.2182 2.33218L67.4448 2.99624L67.6776 3.96875L67.9105 4.94126L70.6839 4.2772L70.451 3.30469ZM67.6776 3.96875H66.6776V24.457H67.6776H68.6776V3.96875H67.6776ZM67.6776 24.457L67.4448 25.4295L70.2182 26.0936L70.451 25.1211L70.6839 24.1486L67.9105 23.4845L67.6776 24.457ZM70.451 25.1211L69.4651 24.954L69.0745 27.2587L70.0604 27.4258L71.0464 27.5929L71.437 25.2882L70.451 25.1211ZM70.0604 27.4258V26.4258H59.4159V27.4258V28.4258H70.0604V27.4258ZM59.4159 27.4258L60.4018 27.2587L60.0112 24.954L59.0253 25.1211L58.0393 25.2882L58.43 27.5929L59.4159 27.4258ZM59.0253 25.1211L59.2566 26.094L62.0496 25.4299L61.8182 24.457L61.5869 23.4842L58.794 24.1482L59.0253 25.1211ZM61.8182 24.457H62.8182V3.96875H61.8182H60.8182V24.457H61.8182ZM84.5878 3.91016H85.5878V2.91016H84.5878V3.91016ZM79.9979 3.91016V2.91016H79.2982L79.0585 3.56753L79.9979 3.91016ZM78.787 7.23047L78.7267 8.22865L79.471 8.27361L79.7265 7.5731L78.787 7.23047ZM75.8768 7.05469L74.878 7.00636L74.8302 7.99329L75.8165 8.05287L75.8768 7.05469ZM76.1698 1V0H75.217L75.171 0.951669L76.1698 1ZM98.8651 1L99.8641 0.954885L99.821 0H98.8651V1ZM99.1385 7.05469L99.1992 8.05284L100.182 7.99308L100.138 7.00957L99.1385 7.05469ZM96.2479 7.23047L95.3102 7.57796L95.5681 8.27366L96.3086 8.22862L96.2479 7.23047ZM95.0175 3.91016L95.9551 3.56266L95.7133 2.91016H95.0175V3.91016ZM90.4471 3.91016V2.91016H89.4471V3.91016H90.4471ZM90.4471 24.457H89.4471V25.2471L90.2158 25.4299L90.4471 24.457ZM93.2401 25.1211L94.2261 25.2882L94.3826 24.3648L93.4714 24.1482L93.2401 25.1211ZM92.8495 27.4258V28.4258H93.6943L93.8354 27.5929L92.8495 27.4258ZM82.1854 27.4258L81.1995 27.5929L81.3407 28.4258H82.1854V27.4258ZM81.7948 25.1211L81.5635 24.1482L80.6524 24.3648L80.8089 25.2882L81.7948 25.1211ZM84.5878 24.457L84.8191 25.4299L85.5878 25.2471V24.457H84.5878ZM84.5878 3.91016V2.91016H79.9979V3.91016V4.91016H84.5878V3.91016ZM79.9979 3.91016L79.0585 3.56753L77.8475 6.88784L78.787 7.23047L79.7265 7.5731L80.9374 4.25279L79.9979 3.91016ZM78.787 7.23047L78.8473 6.23229L75.9371 6.05651L75.8768 7.05469L75.8165 8.05287L78.7267 8.22865L78.787 7.23047ZM75.8768 7.05469L76.8757 7.10302L77.1686 1.04833L76.1698 1L75.171 0.951669L74.878 7.00636L75.8768 7.05469ZM76.1698 1V2H98.8651V1V0H76.1698V1ZM98.8651 1L97.8661 1.04512L98.1396 7.0998L99.1385 7.05469L100.138 7.00957L99.8641 0.954885L98.8651 1ZM99.1385 7.05469L99.0779 6.05653L96.1872 6.23231L96.2479 7.23047L96.3086 8.22862L99.1992 8.05284L99.1385 7.05469ZM96.2479 7.23047L97.1856 6.88297L95.9551 3.56266L95.0175 3.91016L94.0798 4.25765L95.3102 7.57796L96.2479 7.23047ZM95.0175 3.91016V2.91016H90.4471V3.91016V4.91016H95.0175V3.91016ZM90.4471 3.91016H89.4471V24.457H90.4471H91.4471V3.91016H90.4471ZM90.4471 24.457L90.2158 25.4299L93.0088 26.094L93.2401 25.1211L93.4714 24.1482L90.6785 23.4842L90.4471 24.457ZM93.2401 25.1211L92.2542 24.954L91.8635 27.2587L92.8495 27.4258L93.8354 27.5929L94.2261 25.2882L93.2401 25.1211ZM92.8495 27.4258V26.4258H82.1854V27.4258V28.4258H92.8495V27.4258ZM82.1854 27.4258L83.1714 27.2587L82.7807 24.954L81.7948 25.1211L80.8089 25.2882L81.1995 27.5929L82.1854 27.4258ZM81.7948 25.1211L82.0261 26.094L84.8191 25.4299L84.5878 24.457L84.3565 23.4842L81.5635 24.1482L81.7948 25.1211ZM84.5878 24.457H85.5878V3.91016H84.5878H83.5878V24.457H84.5878Z" fill="#292929" mask="url(#path-1-outside-1_1_16)"/>
</svg>
