<svg width="91" height="29" viewBox="0 0 91 29" fill="none" xmlns="http://www.w3.org/2000/svg" preserveAspectRatio="none">
<mask id="path-1-outside-1_1_15" maskUnits="userSpaceOnUse" x="-0.185669" y="-0.574219" width="92" height="29" fill="black">
<rect fill="white" x="-0.185669" y="-0.574219" width="92" height="29"/>
<path d="M9.7948 15.0625V24.457L13.7401 25.1211L13.3495 27.4258H1.53308L1.14246 25.1211L3.93542 24.457V3.96875L1.14246 3.30469L1.53308 1H19.6385L20.1073 7.25L17.705 7.67969L16.0839 3.91016H9.7948V12.1523H14.6776L15.3417 9.96484L17.6464 10.3555V16.8789L15.3417 17.2695L14.6776 15.0625H9.7948ZM29.1073 3.96875L26.3143 3.30469L26.705 1H37.3495L37.7401 3.30469L34.9667 3.96875V24.457L37.7401 25.1211L37.3495 27.4258H26.705L26.3143 25.1211L29.1073 24.457V3.96875ZM47.1307 3.96875L44.3378 3.30469L44.7284 1H55.3729L55.7635 3.30469L52.9901 3.96875V24.5156H58.1854L59.8065 20.7461L62.8143 21.1758L62.326 27.4258H44.7284L44.3378 25.1211L47.1307 24.457V3.96875ZM77.8495 15.0625V24.5156H85.6815L87.3026 20.7461L89.9198 21.1953L89.451 27.4258H69.5878L69.1971 25.1211L71.9901 24.457V3.96875L69.1971 3.30469L69.5878 1H88.8651L89.3339 7.25L86.7362 7.67969L85.1151 3.91016H77.8495V12.1523H83.455L84.119 9.96484L86.4432 10.3555V16.8789L84.119 17.2695L83.455 15.0625H77.8495Z"/>
</mask>
<path d="M9.7948 15.0625V24.457L13.7401 25.1211L13.3495 27.4258H1.53308L1.14246 25.1211L3.93542 24.457V3.96875L1.14246 3.30469L1.53308 1H19.6385L20.1073 7.25L17.705 7.67969L16.0839 3.91016H9.7948V12.1523H14.6776L15.3417 9.96484L17.6464 10.3555V16.8789L15.3417 17.2695L14.6776 15.0625H9.7948ZM29.1073 3.96875L26.3143 3.30469L26.705 1H37.3495L37.7401 3.30469L34.9667 3.96875V24.457L37.7401 25.1211L37.3495 27.4258H26.705L26.3143 25.1211L29.1073 24.457V3.96875ZM47.1307 3.96875L44.3378 3.30469L44.7284 1H55.3729L55.7635 3.30469L52.9901 3.96875V24.5156H58.1854L59.8065 20.7461L62.8143 21.1758L62.326 27.4258H44.7284L44.3378 25.1211L47.1307 24.457V3.96875ZM77.8495 15.0625V24.5156H85.6815L87.3026 20.7461L89.9198 21.1953L89.451 27.4258H69.5878L69.1971 25.1211L71.9901 24.457V3.96875L69.1971 3.30469L69.5878 1H88.8651L89.3339 7.25L86.7362 7.67969L85.1151 3.91016H77.8495V12.1523H83.455L84.119 9.96484L86.4432 10.3555V16.8789L84.119 17.2695L83.455 15.0625H77.8495Z" fill="#292929"/>
<path d="M9.7948 15.0625V14.0625H8.7948V15.0625H9.7948ZM9.7948 24.457H8.7948V25.3028L9.62882 25.4432L9.7948 24.457ZM13.7401 25.1211L14.7261 25.2882L14.8934 24.3011L13.9061 24.135L13.7401 25.1211ZM13.3495 27.4258V28.4258H14.1943L14.3354 27.5929L13.3495 27.4258ZM1.53308 27.4258L0.547142 27.5929L0.688311 28.4258H1.53308V27.4258ZM1.14246 25.1211L0.911142 24.1482L1.64604e-05 24.3648L0.156517 25.2882L1.14246 25.1211ZM3.93542 24.457L4.16674 25.4299L4.93542 25.2471V24.457H3.93542ZM3.93542 3.96875H4.93542V3.17864L4.16674 2.99587L3.93542 3.96875ZM1.14246 3.30469L0.156517 3.13758L1.64604e-05 4.06094L0.911142 4.27757L1.14246 3.30469ZM1.53308 1V0H0.688311L0.547142 0.832892L1.53308 1ZM19.6385 1L20.6357 0.92521L20.5664 0H19.6385V1ZM20.1073 7.25L20.2834 8.23438L21.172 8.07543L21.1045 7.17521L20.1073 7.25ZM17.705 7.67969L16.7863 8.07476L17.0998 8.80379L17.881 8.66407L17.705 7.67969ZM16.0839 3.91016L17.0025 3.51509L16.7424 2.91016H16.0839V3.91016ZM9.7948 3.91016V2.91016H8.7948V3.91016H9.7948ZM9.7948 12.1523H8.7948V13.1523H9.7948V12.1523ZM14.6776 12.1523V13.1523H15.4191L15.6345 12.4428L14.6776 12.1523ZM15.3417 9.96484L15.5088 8.97891L14.6406 8.83175L14.3848 9.67436L15.3417 9.96484ZM17.6464 10.3555H18.6464V9.5107L17.8135 9.36953L17.6464 10.3555ZM17.6464 16.8789L17.8135 17.8648L18.6464 17.7237V16.8789H17.6464ZM15.3417 17.2695L14.3841 17.5577L14.6384 18.403L15.5088 18.2555L15.3417 17.2695ZM14.6776 15.0625L15.6352 14.7744L15.421 14.0625H14.6776V15.0625ZM9.7948 15.0625H8.7948V24.457H9.7948H10.7948V15.0625H9.7948ZM9.7948 24.457L9.62882 25.4432L13.5741 26.1072L13.7401 25.1211L13.9061 24.135L9.96078 23.4709L9.7948 24.457ZM13.7401 25.1211L12.7542 24.954L12.3635 27.2587L13.3495 27.4258L14.3354 27.5929L14.7261 25.2882L13.7401 25.1211ZM13.3495 27.4258V26.4258H1.53308V27.4258V28.4258H13.3495V27.4258ZM1.53308 27.4258L2.51902 27.2587L2.12839 24.954L1.14246 25.1211L0.156517 25.2882L0.547142 27.5929L1.53308 27.4258ZM1.14246 25.1211L1.37377 26.094L4.16674 25.4299L3.93542 24.457L3.70411 23.4842L0.911142 24.1482L1.14246 25.1211ZM3.93542 24.457H4.93542V3.96875H3.93542H2.93542V24.457H3.93542ZM3.93542 3.96875L4.16674 2.99587L1.37377 2.33181L1.14246 3.30469L0.911142 4.27757L3.70411 4.94163L3.93542 3.96875ZM1.14246 3.30469L2.12839 3.4718L2.51902 1.16711L1.53308 1L0.547142 0.832892L0.156517 3.13758L1.14246 3.30469ZM1.53308 1V2H19.6385V1V0H1.53308V1ZM19.6385 1L18.6414 1.07479L19.1101 7.32479L20.1073 7.25L21.1045 7.17521L20.6357 0.92521L19.6385 1ZM20.1073 7.25L19.9312 6.26562L17.5289 6.69531L17.705 7.67969L17.881 8.66407L20.2834 8.23438L20.1073 7.25ZM17.705 7.67969L18.6236 7.28462L17.0025 3.51509L16.0839 3.91016L15.1652 4.30522L16.7863 8.07476L17.705 7.67969ZM16.0839 3.91016V2.91016H9.7948V3.91016V4.91016H16.0839V3.91016ZM9.7948 3.91016H8.7948V12.1523H9.7948H10.7948V3.91016H9.7948ZM9.7948 12.1523V13.1523H14.6776V12.1523V11.1523H9.7948V12.1523ZM14.6776 12.1523L15.6345 12.4428L16.2986 10.2553L15.3417 9.96484L14.3848 9.67436L13.7207 11.8619L14.6776 12.1523ZM15.3417 9.96484L15.1746 10.9508L17.4793 11.3414L17.6464 10.3555L17.8135 9.36953L15.5088 8.97891L15.3417 9.96484ZM17.6464 10.3555H16.6464V16.8789H17.6464H18.6464V10.3555H17.6464ZM17.6464 16.8789L17.4793 15.893L15.1746 16.2836L15.3417 17.2695L15.5088 18.2555L17.8135 17.8648L17.6464 16.8789ZM15.3417 17.2695L16.2993 16.9814L15.6352 14.7744L14.6776 15.0625L13.72 15.3506L14.3841 17.5577L15.3417 17.2695ZM14.6776 15.0625V14.0625H9.7948V15.0625V16.0625H14.6776V15.0625ZM29.1073 3.96875H30.1073V3.17864L29.3386 2.99587L29.1073 3.96875ZM26.3143 3.30469L25.3284 3.13758L25.1719 4.06094L26.083 4.27757L26.3143 3.30469ZM26.705 1V0H25.8602L25.719 0.832892L26.705 1ZM37.3495 1L38.3354 0.832892L38.1943 0H37.3495V1ZM37.7401 3.30469L37.973 4.2772L38.8823 4.05947L38.7261 3.13758L37.7401 3.30469ZM34.9667 3.96875L34.7338 2.99624L33.9667 3.17992V3.96875H34.9667ZM34.9667 24.457H33.9667V25.2459L34.7338 25.4295L34.9667 24.457ZM37.7401 25.1211L38.7261 25.2882L38.8823 24.3663L37.973 24.1486L37.7401 25.1211ZM37.3495 27.4258V28.4258H38.1943L38.3354 27.5929L37.3495 27.4258ZM26.705 27.4258L25.719 27.5929L25.8602 28.4258H26.705V27.4258ZM26.3143 25.1211L26.083 24.1482L25.1719 24.3648L25.3284 25.2882L26.3143 25.1211ZM29.1073 24.457L29.3386 25.4299L30.1073 25.2471V24.457H29.1073ZM29.1073 3.96875L29.3386 2.99587L26.5456 2.33181L26.3143 3.30469L26.083 4.27757L28.876 4.94163L29.1073 3.96875ZM26.3143 3.30469L27.3003 3.4718L27.6909 1.16711L26.705 1L25.719 0.832892L25.3284 3.13758L26.3143 3.30469ZM26.705 1V2H37.3495V1V0H26.705V1ZM37.3495 1L36.3635 1.16711L36.7542 3.4718L37.7401 3.30469L38.7261 3.13758L38.3354 0.832892L37.3495 1ZM37.7401 3.30469L37.5073 2.33218L34.7338 2.99624L34.9667 3.96875L35.1995 4.94126L37.973 4.2772L37.7401 3.30469ZM34.9667 3.96875H33.9667V24.457H34.9667H35.9667V3.96875H34.9667ZM34.9667 24.457L34.7338 25.4295L37.5073 26.0936L37.7401 25.1211L37.973 24.1486L35.1995 23.4845L34.9667 24.457ZM37.7401 25.1211L36.7542 24.954L36.3635 27.2587L37.3495 27.4258L38.3354 27.5929L38.7261 25.2882L37.7401 25.1211ZM37.3495 27.4258V26.4258H26.705V27.4258V28.4258H37.3495V27.4258ZM26.705 27.4258L27.6909 27.2587L27.3003 24.954L26.3143 25.1211L25.3284 25.2882L25.719 27.5929L26.705 27.4258ZM26.3143 25.1211L26.5456 26.094L29.3386 25.4299L29.1073 24.457L28.876 23.4842L26.083 24.1482L26.3143 25.1211ZM29.1073 24.457H30.1073V3.96875H29.1073H28.1073V24.457H29.1073ZM47.1307 3.96875H48.1307V3.17864L47.3621 2.99587L47.1307 3.96875ZM44.3378 3.30469L43.3518 3.13758L43.1953 4.06094L44.1065 4.27757L44.3378 3.30469ZM44.7284 1V0H43.8836L43.7425 0.832892L44.7284 1ZM55.3729 1L56.3589 0.832892L56.2177 0H55.3729V1ZM55.7635 3.30469L55.9964 4.2772L56.9057 4.05947L56.7495 3.13758L55.7635 3.30469ZM52.9901 3.96875L52.7573 2.99624L51.9901 3.17992V3.96875H52.9901ZM52.9901 24.5156H51.9901V25.5156H52.9901V24.5156ZM58.1854 24.5156V25.5156H58.8439L59.1041 24.9107L58.1854 24.5156ZM59.8065 20.7461L59.9479 19.7561L59.1902 19.6479L58.8879 20.351L59.8065 20.7461ZM62.8143 21.1758L63.8113 21.2537L63.8844 20.3185L62.9558 20.1858L62.8143 21.1758ZM62.326 27.4258V28.4258H63.251L63.323 27.5037L62.326 27.4258ZM44.7284 27.4258L43.7425 27.5929L43.8836 28.4258H44.7284V27.4258ZM44.3378 25.1211L44.1065 24.1482L43.1953 24.3648L43.3518 25.2882L44.3378 25.1211ZM47.1307 24.457L47.3621 25.4299L48.1307 25.2471V24.457H47.1307ZM47.1307 3.96875L47.3621 2.99587L44.5691 2.33181L44.3378 3.30469L44.1065 4.27757L46.8994 4.94163L47.1307 3.96875ZM44.3378 3.30469L45.3237 3.4718L45.7143 1.16711L44.7284 1L43.7425 0.832892L43.3518 3.13758L44.3378 3.30469ZM44.7284 1V2H55.3729V1V0H44.7284V1ZM55.3729 1L54.387 1.16711L54.7776 3.4718L55.7635 3.30469L56.7495 3.13758L56.3589 0.832892L55.3729 1ZM55.7635 3.30469L55.5307 2.33218L52.7573 2.99624L52.9901 3.96875L53.223 4.94126L55.9964 4.2772L55.7635 3.30469ZM52.9901 3.96875H51.9901V24.5156H52.9901H53.9901V3.96875H52.9901ZM52.9901 24.5156V25.5156H58.1854V24.5156V23.5156H52.9901V24.5156ZM58.1854 24.5156L59.1041 24.9107L60.7252 21.1412L59.8065 20.7461L58.8879 20.351L57.2668 24.1206L58.1854 24.5156ZM59.8065 20.7461L59.6651 21.736L62.6729 22.1657L62.8143 21.1758L62.9558 20.1858L59.9479 19.7561L59.8065 20.7461ZM62.8143 21.1758L61.8174 21.0979L61.3291 27.3479L62.326 27.4258L63.323 27.5037L63.8113 21.2537L62.8143 21.1758ZM62.326 27.4258V26.4258H44.7284V27.4258V28.4258H62.326V27.4258ZM44.7284 27.4258L45.7143 27.2587L45.3237 24.954L44.3378 25.1211L43.3518 25.2882L43.7425 27.5929L44.7284 27.4258ZM44.3378 25.1211L44.5691 26.094L47.3621 25.4299L47.1307 24.457L46.8994 23.4842L44.1065 24.1482L44.3378 25.1211ZM47.1307 24.457H48.1307V3.96875H47.1307H46.1307V24.457H47.1307ZM77.8495 15.0625V14.0625H76.8495V15.0625H77.8495ZM77.8495 24.5156H76.8495V25.5156H77.8495V24.5156ZM85.6815 24.5156V25.5156H86.34L86.6002 24.9107L85.6815 24.5156ZM87.3026 20.7461L87.4718 19.7605L86.6952 19.6272L86.384 20.351L87.3026 20.7461ZM89.9198 21.1953L90.917 21.2703L90.9852 20.3636L90.089 20.2097L89.9198 21.1953ZM89.451 27.4258V28.4258H90.3786L90.4482 27.5008L89.451 27.4258ZM69.5878 27.4258L68.6018 27.5929L68.743 28.4258H69.5878V27.4258ZM69.1971 25.1211L68.9658 24.1482L68.0547 24.3648L68.2112 25.2882L69.1971 25.1211ZM71.9901 24.457L72.2214 25.4299L72.9901 25.2471V24.457H71.9901ZM71.9901 3.96875H72.9901V3.17864L72.2214 2.99587L71.9901 3.96875ZM69.1971 3.30469L68.2112 3.13758L68.0547 4.06094L68.9658 4.27757L69.1971 3.30469ZM69.5878 1V0H68.743L68.6018 0.832892L69.5878 1ZM88.8651 1L89.8623 0.92521L89.7929 0H88.8651V1ZM89.3339 7.25L89.4971 8.23659L90.3995 8.08732L90.3311 7.17521L89.3339 7.25ZM86.7362 7.67969L85.8176 8.07476L86.1269 8.79406L86.8994 8.66628L86.7362 7.67969ZM85.1151 3.91016L86.0338 3.51509L85.7736 2.91016H85.1151V3.91016ZM77.8495 3.91016V2.91016H76.8495V3.91016H77.8495ZM77.8495 12.1523H76.8495V13.1523H77.8495V12.1523ZM83.455 12.1523V13.1523H84.1964L84.4118 12.4428L83.455 12.1523ZM84.119 9.96484L84.2848 8.97867L83.4176 8.83293L83.1621 9.67436L84.119 9.96484ZM86.4432 10.3555H87.4432V9.50951L86.609 9.3693L86.4432 10.3555ZM86.4432 16.8789L86.609 17.8651L87.4432 17.7249V16.8789H86.4432ZM84.119 17.2695L83.1614 17.5577L83.4154 18.4018L84.2848 18.2557L84.119 17.2695ZM83.455 15.0625L84.4125 14.7744L84.1984 14.0625H83.455V15.0625ZM77.8495 15.0625H76.8495V24.5156H77.8495H78.8495V15.0625H77.8495ZM77.8495 24.5156V25.5156H85.6815V24.5156V23.5156H77.8495V24.5156ZM85.6815 24.5156L86.6002 24.9107L88.2213 21.1412L87.3026 20.7461L86.384 20.351L84.7629 24.1206L85.6815 24.5156ZM87.3026 20.7461L87.1334 21.7317L89.7506 22.1809L89.9198 21.1953L90.089 20.2097L87.4718 19.7605L87.3026 20.7461ZM89.9198 21.1953L88.9226 21.1203L88.4539 27.3508L89.451 27.4258L90.4482 27.5008L90.917 21.2703L89.9198 21.1953ZM89.451 27.4258V26.4258H69.5878V27.4258V28.4258H89.451V27.4258ZM69.5878 27.4258L70.5737 27.2587L70.1831 24.954L69.1971 25.1211L68.2112 25.2882L68.6018 27.5929L69.5878 27.4258ZM69.1971 25.1211L69.4285 26.094L72.2214 25.4299L71.9901 24.457L71.7588 23.4842L68.9658 24.1482L69.1971 25.1211ZM71.9901 24.457H72.9901V3.96875H71.9901H70.9901V24.457H71.9901ZM71.9901 3.96875L72.2214 2.99587L69.4285 2.33181L69.1971 3.30469L68.9658 4.27757L71.7588 4.94163L71.9901 3.96875ZM69.1971 3.30469L70.1831 3.4718L70.5737 1.16711L69.5878 1L68.6018 0.832892L68.2112 3.13758L69.1971 3.30469ZM69.5878 1V2H88.8651V1V0H69.5878V1ZM88.8651 1L87.8679 1.07479L88.3367 7.32479L89.3339 7.25L90.3311 7.17521L89.8623 0.92521L88.8651 1ZM89.3339 7.25L89.1707 6.26341L86.573 6.69309L86.7362 7.67969L86.8994 8.66628L89.4971 8.23659L89.3339 7.25ZM86.7362 7.67969L87.6549 7.28462L86.0338 3.51509L85.1151 3.91016L84.1965 4.30522L85.8176 8.07476L86.7362 7.67969ZM85.1151 3.91016V2.91016H77.8495V3.91016V4.91016H85.1151V3.91016ZM77.8495 3.91016H76.8495V12.1523H77.8495H78.8495V3.91016H77.8495ZM77.8495 12.1523V13.1523H83.455V12.1523V11.1523H77.8495V12.1523ZM83.455 12.1523L84.4118 12.4428L85.0759 10.2553L84.119 9.96484L83.1621 9.67436L82.4981 11.8619L83.455 12.1523ZM84.119 9.96484L83.9533 10.951L86.2775 11.3416L86.4432 10.3555L86.609 9.3693L84.2848 8.97867L84.119 9.96484ZM86.4432 10.3555H85.4432V16.8789H86.4432H87.4432V10.3555H86.4432ZM86.4432 16.8789L86.2775 15.8927L83.9533 16.2834L84.119 17.2695L84.2848 18.2557L86.609 17.8651L86.4432 16.8789ZM84.119 17.2695L85.0766 16.9814L84.4125 14.7744L83.455 15.0625L82.4974 15.3506L83.1614 17.5577L84.119 17.2695ZM83.455 15.0625V14.0625H77.8495V15.0625V16.0625H83.455V15.0625Z" fill="#292929" mask="url(#path-1-outside-1_1_15)"/>
</svg>
