<svg width="113" height="29" viewBox="0 0 113 29" fill="none" xmlns="http://www.w3.org/2000/svg" preserveAspectRatio="none">
<mask id="path-1-outside-1_1_13" maskUnits="userSpaceOnUse" x="-0.185669" y="-0.574219" width="113" height="29" fill="black">
<rect fill="white" x="-0.185669" y="-0.574219" width="113" height="29"/>
<path d="M3.93542 3.96875L1.14246 3.30469L1.53308 1H12.1776L12.5682 3.30469L9.7948 3.96875V24.457L12.5682 25.1211L12.1776 27.4258H1.53308L1.14246 25.1211L3.93542 24.457V3.96875ZM26.705 3.91016H22.1151L20.9042 7.23047L17.994 7.05469L18.287 1H40.9823L41.2557 7.05469L38.3651 7.23047L37.1346 3.91016H32.5643V24.457L35.3573 25.1211L34.9667 27.4258H24.3026L23.912 25.1211L26.705 24.457V3.91016ZM55.451 15.0625V24.5156H63.2831L64.9042 20.7461L67.5214 21.1953L67.0526 27.4258H47.1893L46.7987 25.1211L49.5917 24.457V3.96875L46.7987 3.30469L47.1893 1H66.4667L66.9354 7.25L64.3378 7.67969L62.7167 3.91016H55.451V12.1523H61.0565L61.7206 9.96484L64.0448 10.3555V16.8789L61.7206 17.2695L61.0565 15.0625H55.451ZM76.9901 3.96875L74.1971 3.30469L74.5878 1H85.2128L92.4589 20.1602H92.7714L99.744 1H110.584L110.974 3.30469L108.201 3.96875V24.457L110.974 25.1211L110.584 27.4258H99.9393L99.5487 25.1211L102.342 24.457V5.25781H102.029L93.7479 27.4258H89.744L81.2089 5.25781H80.8964V24.457L83.6698 25.1211L83.2792 27.4258H74.5878L74.1971 25.1211L76.9901 24.457V3.96875Z"/>
</mask>
<path d="M3.93542 3.96875L1.14246 3.30469L1.53308 1H12.1776L12.5682 3.30469L9.7948 3.96875V24.457L12.5682 25.1211L12.1776 27.4258H1.53308L1.14246 25.1211L3.93542 24.457V3.96875ZM26.705 3.91016H22.1151L20.9042 7.23047L17.994 7.05469L18.287 1H40.9823L41.2557 7.05469L38.3651 7.23047L37.1346 3.91016H32.5643V24.457L35.3573 25.1211L34.9667 27.4258H24.3026L23.912 25.1211L26.705 24.457V3.91016ZM55.451 15.0625V24.5156H63.2831L64.9042 20.7461L67.5214 21.1953L67.0526 27.4258H47.1893L46.7987 25.1211L49.5917 24.457V3.96875L46.7987 3.30469L47.1893 1H66.4667L66.9354 7.25L64.3378 7.67969L62.7167 3.91016H55.451V12.1523H61.0565L61.7206 9.96484L64.0448 10.3555V16.8789L61.7206 17.2695L61.0565 15.0625H55.451ZM76.9901 3.96875L74.1971 3.30469L74.5878 1H85.2128L92.4589 20.1602H92.7714L99.744 1H110.584L110.974 3.30469L108.201 3.96875V24.457L110.974 25.1211L110.584 27.4258H99.9393L99.5487 25.1211L102.342 24.457V5.25781H102.029L93.7479 27.4258H89.744L81.2089 5.25781H80.8964V24.457L83.6698 25.1211L83.2792 27.4258H74.5878L74.1971 25.1211L76.9901 24.457V3.96875Z" fill="#292929"/>
<path d="M3.93542 3.96875H4.93542V3.17864L4.16674 2.99587L3.93542 3.96875ZM1.14246 3.30469L0.156517 3.13758L1.64604e-05 4.06094L0.911142 4.27757L1.14246 3.30469ZM1.53308 1V0H0.688311L0.547142 0.832892L1.53308 1ZM12.1776 1L13.1636 0.832892L13.0224 0H12.1776V1ZM12.5682 3.30469L12.8011 4.2772L13.7104 4.05947L13.5542 3.13758L12.5682 3.30469ZM9.7948 3.96875L9.56194 2.99624L8.7948 3.17992V3.96875H9.7948ZM9.7948 24.457H8.7948V25.2459L9.56194 25.4295L9.7948 24.457ZM12.5682 25.1211L13.5542 25.2882L13.7104 24.3663L12.8011 24.1486L12.5682 25.1211ZM12.1776 27.4258V28.4258H13.0224L13.1636 27.5929L12.1776 27.4258ZM1.53308 27.4258L0.547142 27.5929L0.688311 28.4258H1.53308V27.4258ZM1.14246 25.1211L0.911142 24.1482L1.64604e-05 24.3648L0.156517 25.2882L1.14246 25.1211ZM3.93542 24.457L4.16674 25.4299L4.93542 25.2471V24.457H3.93542ZM3.93542 3.96875L4.16674 2.99587L1.37377 2.33181L1.14246 3.30469L0.911142 4.27757L3.70411 4.94163L3.93542 3.96875ZM1.14246 3.30469L2.12839 3.4718L2.51902 1.16711L1.53308 1L0.547142 0.832892L0.156517 3.13758L1.14246 3.30469ZM1.53308 1V2H12.1776V1V0H1.53308V1ZM12.1776 1L11.1917 1.16711L11.5823 3.4718L12.5682 3.30469L13.5542 3.13758L13.1636 0.832892L12.1776 1ZM12.5682 3.30469L12.3354 2.33218L9.56194 2.99624L9.7948 3.96875L10.0277 4.94126L12.8011 4.2772L12.5682 3.30469ZM9.7948 3.96875H8.7948V24.457H9.7948H10.7948V3.96875H9.7948ZM9.7948 24.457L9.56194 25.4295L12.3354 26.0936L12.5682 25.1211L12.8011 24.1486L10.0277 23.4845L9.7948 24.457ZM12.5682 25.1211L11.5823 24.954L11.1917 27.2587L12.1776 27.4258L13.1636 27.5929L13.5542 25.2882L12.5682 25.1211ZM12.1776 27.4258V26.4258H1.53308V27.4258V28.4258H12.1776V27.4258ZM1.53308 27.4258L2.51902 27.2587L2.12839 24.954L1.14246 25.1211L0.156517 25.2882L0.547142 27.5929L1.53308 27.4258ZM1.14246 25.1211L1.37377 26.094L4.16674 25.4299L3.93542 24.457L3.70411 23.4842L0.911142 24.1482L1.14246 25.1211ZM3.93542 24.457H4.93542V3.96875H3.93542H2.93542V24.457H3.93542ZM26.705 3.91016H27.705V2.91016H26.705V3.91016ZM22.1151 3.91016V2.91016H21.4154L21.1756 3.56753L22.1151 3.91016ZM20.9042 7.23047L20.8439 8.22865L21.5882 8.27361L21.8436 7.5731L20.9042 7.23047ZM17.994 7.05469L16.9952 7.00636L16.9474 7.99329L17.9337 8.05287L17.994 7.05469ZM18.287 1V0H17.3342L17.2882 0.951669L18.287 1ZM40.9823 1L41.9813 0.954885L41.9382 0H40.9823V1ZM41.2557 7.05469L41.3164 8.05284L42.2991 7.99308L42.2547 7.00957L41.2557 7.05469ZM38.3651 7.23047L37.4274 7.57796L37.6852 8.27366L38.4258 8.22862L38.3651 7.23047ZM37.1346 3.91016L38.0723 3.56266L37.8305 2.91016H37.1346V3.91016ZM32.5643 3.91016V2.91016H31.5643V3.91016H32.5643ZM32.5643 24.457H31.5643V25.2471L32.333 25.4299L32.5643 24.457ZM35.3573 25.1211L36.3432 25.2882L36.4997 24.3648L35.5886 24.1482L35.3573 25.1211ZM34.9667 27.4258V28.4258H35.8114L35.9526 27.5929L34.9667 27.4258ZM24.3026 27.4258L23.3167 27.5929L23.4578 28.4258H24.3026V27.4258ZM23.912 25.1211L23.6807 24.1482L22.7695 24.3648L22.926 25.2882L23.912 25.1211ZM26.705 24.457L26.9363 25.4299L27.705 25.2471V24.457H26.705ZM26.705 3.91016V2.91016H22.1151V3.91016V4.91016H26.705V3.91016ZM22.1151 3.91016L21.1756 3.56753L19.9647 6.88784L20.9042 7.23047L21.8436 7.5731L23.0546 4.25279L22.1151 3.91016ZM20.9042 7.23047L20.9645 6.23229L18.0543 6.05651L17.994 7.05469L17.9337 8.05287L20.8439 8.22865L20.9042 7.23047ZM17.994 7.05469L18.9928 7.10302L19.2858 1.04833L18.287 1L17.2882 0.951669L16.9952 7.00636L17.994 7.05469ZM18.287 1V2H40.9823V1V0H18.287V1ZM40.9823 1L39.9833 1.04512L40.2568 7.0998L41.2557 7.05469L42.2547 7.00957L41.9813 0.954885L40.9823 1ZM41.2557 7.05469L41.195 6.05653L38.3044 6.23231L38.3651 7.23047L38.4258 8.22862L41.3164 8.05284L41.2557 7.05469ZM38.3651 7.23047L39.3028 6.88297L38.0723 3.56266L37.1346 3.91016L36.197 4.25765L37.4274 7.57796L38.3651 7.23047ZM37.1346 3.91016V2.91016H32.5643V3.91016V4.91016H37.1346V3.91016ZM32.5643 3.91016H31.5643V24.457H32.5643H33.5643V3.91016H32.5643ZM32.5643 24.457L32.333 25.4299L35.126 26.094L35.3573 25.1211L35.5886 24.1482L32.7956 23.4842L32.5643 24.457ZM35.3573 25.1211L34.3714 24.954L33.9807 27.2587L34.9667 27.4258L35.9526 27.5929L36.3432 25.2882L35.3573 25.1211ZM34.9667 27.4258V26.4258H24.3026V27.4258V28.4258H34.9667V27.4258ZM24.3026 27.4258L25.2886 27.2587L24.8979 24.954L23.912 25.1211L22.926 25.2882L23.3167 27.5929L24.3026 27.4258ZM23.912 25.1211L24.1433 26.094L26.9363 25.4299L26.705 24.457L26.4736 23.4842L23.6807 24.1482L23.912 25.1211ZM26.705 24.457H27.705V3.91016H26.705H25.705V24.457H26.705ZM55.451 15.0625V14.0625H54.451V15.0625H55.451ZM55.451 24.5156H54.451V25.5156H55.451V24.5156ZM63.2831 24.5156V25.5156H63.9416L64.2017 24.9107L63.2831 24.5156ZM64.9042 20.7461L65.0733 19.7605L64.2968 19.6272L63.9855 20.351L64.9042 20.7461ZM67.5214 21.1953L68.5185 21.2703L68.5868 20.3636L67.6905 20.2097L67.5214 21.1953ZM67.0526 27.4258V28.4258H67.9802L68.0498 27.5008L67.0526 27.4258ZM47.1893 27.4258L46.2034 27.5929L46.3446 28.4258H47.1893V27.4258ZM46.7987 25.1211L46.5674 24.1482L45.6563 24.3648L45.8128 25.2882L46.7987 25.1211ZM49.5917 24.457L49.823 25.4299L50.5917 25.2471V24.457H49.5917ZM49.5917 3.96875H50.5917V3.17864L49.823 2.99587L49.5917 3.96875ZM46.7987 3.30469L45.8128 3.13758L45.6563 4.06094L46.5674 4.27757L46.7987 3.30469ZM47.1893 1V0H46.3446L46.2034 0.832892L47.1893 1ZM66.4667 1L67.4639 0.92521L67.3945 0H66.4667V1ZM66.9354 7.25L67.0986 8.23659L68.001 8.08732L67.9326 7.17521L66.9354 7.25ZM64.3378 7.67969L63.4191 8.07476L63.7285 8.79406L64.501 8.66628L64.3378 7.67969ZM62.7167 3.91016L63.6353 3.51509L63.3752 2.91016H62.7167V3.91016ZM55.451 3.91016V2.91016H54.451V3.91016H55.451ZM55.451 12.1523H54.451V13.1523H55.451V12.1523ZM61.0565 12.1523V13.1523H61.798L62.0134 12.4428L61.0565 12.1523ZM61.7206 9.96484L61.8863 8.97867L61.0191 8.83293L60.7637 9.67436L61.7206 9.96484ZM64.0448 10.3555H65.0448V9.50951L64.2105 9.3693L64.0448 10.3555ZM64.0448 16.8789L64.2105 17.8651L65.0448 17.7249V16.8789H64.0448ZM61.7206 17.2695L60.763 17.5577L61.017 18.4018L61.8863 18.2557L61.7206 17.2695ZM61.0565 15.0625L62.0141 14.7744L61.7999 14.0625H61.0565V15.0625ZM55.451 15.0625H54.451V24.5156H55.451H56.451V15.0625H55.451ZM55.451 24.5156V25.5156H63.2831V24.5156V23.5156H55.451V24.5156ZM63.2831 24.5156L64.2017 24.9107L65.8228 21.1412L64.9042 20.7461L63.9855 20.351L62.3644 24.1206L63.2831 24.5156ZM64.9042 20.7461L64.735 21.7317L67.3522 22.1809L67.5214 21.1953L67.6905 20.2097L65.0733 19.7605L64.9042 20.7461ZM67.5214 21.1953L66.5242 21.1203L66.0554 27.3508L67.0526 27.4258L68.0498 27.5008L68.5185 21.2703L67.5214 21.1953ZM67.0526 27.4258V26.4258H47.1893V27.4258V28.4258H67.0526V27.4258ZM47.1893 27.4258L48.1753 27.2587L47.7846 24.954L46.7987 25.1211L45.8128 25.2882L46.2034 27.5929L47.1893 27.4258ZM46.7987 25.1211L47.03 26.094L49.823 25.4299L49.5917 24.457L49.3604 23.4842L46.5674 24.1482L46.7987 25.1211ZM49.5917 24.457H50.5917V3.96875H49.5917H48.5917V24.457H49.5917ZM49.5917 3.96875L49.823 2.99587L47.03 2.33181L46.7987 3.30469L46.5674 4.27757L49.3604 4.94163L49.5917 3.96875ZM46.7987 3.30469L47.7846 3.4718L48.1753 1.16711L47.1893 1L46.2034 0.832892L45.8128 3.13758L46.7987 3.30469ZM47.1893 1V2H66.4667V1V0H47.1893V1ZM66.4667 1L65.4695 1.07479L65.9382 7.32479L66.9354 7.25L67.9326 7.17521L67.4639 0.92521L66.4667 1ZM66.9354 7.25L66.7722 6.26341L64.1746 6.69309L64.3378 7.67969L64.501 8.66628L67.0986 8.23659L66.9354 7.25ZM64.3378 7.67969L65.2564 7.28462L63.6353 3.51509L62.7167 3.91016L61.798 4.30522L63.4191 8.07476L64.3378 7.67969ZM62.7167 3.91016V2.91016H55.451V3.91016V4.91016H62.7167V3.91016ZM55.451 3.91016H54.451V12.1523H55.451H56.451V3.91016H55.451ZM55.451 12.1523V13.1523H61.0565V12.1523V11.1523H55.451V12.1523ZM61.0565 12.1523L62.0134 12.4428L62.6775 10.2553L61.7206 9.96484L60.7637 9.67436L60.0996 11.8619L61.0565 12.1523ZM61.7206 9.96484L61.5548 10.951L63.8791 11.3416L64.0448 10.3555L64.2105 9.3693L61.8863 8.97867L61.7206 9.96484ZM64.0448 10.3555H63.0448V16.8789H64.0448H65.0448V10.3555H64.0448ZM64.0448 16.8789L63.8791 15.8927L61.5548 16.2834L61.7206 17.2695L61.8863 18.2557L64.2105 17.8651L64.0448 16.8789ZM61.7206 17.2695L62.6782 16.9814L62.0141 14.7744L61.0565 15.0625L60.0989 15.3506L60.763 17.5577L61.7206 17.2695ZM61.0565 15.0625V14.0625H55.451V15.0625V16.0625H61.0565V15.0625ZM76.9901 3.96875H77.9901V3.17864L77.2214 2.99587L76.9901 3.96875ZM74.1971 3.30469L73.2112 3.13758L73.0547 4.06094L73.9658 4.27757L74.1971 3.30469ZM74.5878 1V0H73.743L73.6018 0.832892L74.5878 1ZM85.2128 1L86.1481 0.646266L85.9037 0H85.2128V1ZM92.4589 20.1602L91.5235 20.5139L91.7679 21.1602H92.4589V20.1602ZM92.7714 20.1602V21.1602H93.4716L93.7111 20.5021L92.7714 20.1602ZM99.744 1V0H99.0438L98.8043 0.658026L99.744 1ZM110.584 1L111.57 0.832892L111.429 0H110.584V1ZM110.974 3.30469L111.207 4.2772L112.117 4.05947L111.96 3.13758L110.974 3.30469ZM108.201 3.96875L107.968 2.99624L107.201 3.17992V3.96875H108.201ZM108.201 24.457H107.201V25.2459L107.968 25.4295L108.201 24.457ZM110.974 25.1211L111.96 25.2882L112.117 24.3663L111.207 24.1486L110.974 25.1211ZM110.584 27.4258V28.4258H111.429L111.57 27.5929L110.584 27.4258ZM99.9393 27.4258L98.9534 27.5929L99.0946 28.4258H99.9393V27.4258ZM99.5487 25.1211L99.3174 24.1482L98.4063 24.3648L98.5628 25.2882L99.5487 25.1211ZM102.342 24.457L102.573 25.4299L103.342 25.2471V24.457H102.342ZM102.342 5.25781H103.342V4.25781H102.342V5.25781ZM102.029 5.25781V4.25781H101.335L101.092 4.90787L102.029 5.25781ZM93.7479 27.4258V28.4258H94.4419L94.6847 27.7757L93.7479 27.4258ZM89.744 27.4258L88.8108 27.7851L89.0575 28.4258H89.744V27.4258ZM81.2089 5.25781L82.1421 4.8985L81.8954 4.25781H81.2089V5.25781ZM80.8964 5.25781V4.25781H79.8964V5.25781H80.8964ZM80.8964 24.457H79.8964V25.2459L80.6635 25.4295L80.8964 24.457ZM83.6698 25.1211L84.6557 25.2882L84.812 24.3663L83.9027 24.1486L83.6698 25.1211ZM83.2792 27.4258V28.4258H84.1239L84.2651 27.5929L83.2792 27.4258ZM74.5878 27.4258L73.6018 27.5929L73.743 28.4258H74.5878V27.4258ZM74.1971 25.1211L73.9658 24.1482L73.0547 24.3648L73.2112 25.2882L74.1971 25.1211ZM76.9901 24.457L77.2214 25.4299L77.9901 25.2471V24.457H76.9901ZM76.9901 3.96875L77.2214 2.99587L74.4285 2.33181L74.1971 3.30469L73.9658 4.27757L76.7588 4.94163L76.9901 3.96875ZM74.1971 3.30469L75.1831 3.4718L75.5737 1.16711L74.5878 1L73.6018 0.832892L73.2112 3.13758L74.1971 3.30469ZM74.5878 1V2H85.2128V1V0H74.5878V1ZM85.2128 1L84.2774 1.35373L91.5235 20.5139L92.4589 20.1602L93.3942 19.8064L86.1481 0.646266L85.2128 1ZM92.4589 20.1602V21.1602H92.7714V20.1602V19.1602H92.4589V20.1602ZM92.7714 20.1602L93.7111 20.5021L100.684 1.34197L99.744 1L98.8043 0.658026L91.8317 19.8182L92.7714 20.1602ZM99.744 1V2H110.584V1V0H99.744V1ZM110.584 1L109.598 1.16711L109.989 3.4718L110.974 3.30469L111.96 3.13758L111.57 0.832892L110.584 1ZM110.974 3.30469L110.742 2.33218L107.968 2.99624L108.201 3.96875L108.434 4.94126L111.207 4.2772L110.974 3.30469ZM108.201 3.96875H107.201V24.457H108.201H109.201V3.96875H108.201ZM108.201 24.457L107.968 25.4295L110.742 26.0936L110.974 25.1211L111.207 24.1486L108.434 23.4845L108.201 24.457ZM110.974 25.1211L109.989 24.954L109.598 27.2587L110.584 27.4258L111.57 27.5929L111.96 25.2882L110.974 25.1211ZM110.584 27.4258V26.4258H99.9393V27.4258V28.4258H110.584V27.4258ZM99.9393 27.4258L100.925 27.2587L100.535 24.954L99.5487 25.1211L98.5628 25.2882L98.9534 27.5929L99.9393 27.4258ZM99.5487 25.1211L99.78 26.094L102.573 25.4299L102.342 24.457L102.11 23.4842L99.3174 24.1482L99.5487 25.1211ZM102.342 24.457H103.342V5.25781H102.342H101.342V24.457H102.342ZM102.342 5.25781V4.25781H102.029V5.25781V6.25781H102.342V5.25781ZM102.029 5.25781L101.092 4.90787L92.8112 27.0758L93.7479 27.4258L94.6847 27.7757L102.966 5.60776L102.029 5.25781ZM93.7479 27.4258V26.4258H89.744V27.4258V28.4258H93.7479V27.4258ZM89.744 27.4258L90.6772 27.0665L82.1421 4.8985L81.2089 5.25781L80.2756 5.61712L88.8108 27.7851L89.744 27.4258ZM81.2089 5.25781V4.25781H80.8964V5.25781V6.25781H81.2089V5.25781ZM80.8964 5.25781H79.8964V24.457H80.8964H81.8964V5.25781H80.8964ZM80.8964 24.457L80.6635 25.4295L83.4369 26.0936L83.6698 25.1211L83.9027 24.1486L81.1292 23.4845L80.8964 24.457ZM83.6698 25.1211L82.6839 24.954L82.2932 27.2587L83.2792 27.4258L84.2651 27.5929L84.6557 25.2882L83.6698 25.1211ZM83.2792 27.4258V26.4258H74.5878V27.4258V28.4258H83.2792V27.4258ZM74.5878 27.4258L75.5737 27.2587L75.1831 24.954L74.1971 25.1211L73.2112 25.2882L73.6018 27.5929L74.5878 27.4258ZM74.1971 25.1211L74.4285 26.094L77.2214 25.4299L76.9901 24.457L76.7588 23.4842L73.9658 24.1482L74.1971 25.1211ZM76.9901 24.457H77.9901V3.96875H76.9901H75.9901V24.457H76.9901Z" fill="#292929" mask="url(#path-1-outside-1_1_13)"/>
</svg>
