<svg width="96" height="29" viewBox="0 0 96 29" fill="none" xmlns="http://www.w3.org/2000/svg" preserveAspectRatio="none">
<mask id="path-1-outside-1_1_14" maskUnits="userSpaceOnUse" x="-0.107544" y="-0.574219" width="96" height="29" fill="black">
<rect fill="white" x="-0.107544" y="-0.574219" width="96" height="29"/>
<path d="M3.93542 3.96875L1.14246 3.30469L1.53308 1H12.1581L19.4042 20.1602H19.7167L26.6893 1H37.5292L37.9198 3.30469L35.1464 3.96875V24.457L37.9198 25.1211L37.5292 27.4258H26.8846L26.494 25.1211L29.287 24.457V5.25781H28.9745L20.6932 27.4258H16.6893L8.15417 5.25781H7.84167V24.457L10.6151 25.1211L10.2245 27.4258H1.53308L1.14246 25.1211L3.93542 24.457V3.96875ZM42.6815 25.1211L44.6346 24.5742L53.0917 1H58.2284L66.4901 24.5742L68.4237 25.1211L68.0331 27.4258H58.3846L57.994 25.1211L60.5721 24.5742L58.9706 19.8867H50.1229L48.4823 24.5742L51.0604 25.1211L50.6698 27.4258H43.0721L42.6815 25.1211ZM51.119 16.9766H57.994L54.7518 7.44531H54.4393L51.119 16.9766ZM76.076 3.96875L73.2831 3.30469L73.6737 1H84.9042C88.1073 1 90.5096 1.58594 92.1112 2.75781C93.7258 3.92969 94.5331 5.66146 94.5331 7.95312C94.5331 10.4141 93.6672 12.3542 91.9354 13.7734C90.2167 15.1797 88.0096 15.8828 85.3143 15.8828H81.9354V24.457L86.076 25.1211L85.6854 27.4258H73.6737L73.2831 25.1211L76.076 24.457V3.96875ZM81.9354 3.91016V12.9727H84.0839C84.8391 12.9727 85.5813 12.9206 86.3104 12.8164C87.0526 12.6992 87.632 12.569 88.0487 12.4258C88.218 11.918 88.3482 11.306 88.4393 10.5898C88.5435 9.8737 88.5956 9.18359 88.5956 8.51953C88.5956 6.95703 88.1594 5.79818 87.287 5.04297C86.4276 4.28776 85.1646 3.91016 83.4979 3.91016H81.9354Z"/>
</mask>
<path d="M3.93542 3.96875L1.14246 3.30469L1.53308 1H12.1581L19.4042 20.1602H19.7167L26.6893 1H37.5292L37.9198 3.30469L35.1464 3.96875V24.457L37.9198 25.1211L37.5292 27.4258H26.8846L26.494 25.1211L29.287 24.457V5.25781H28.9745L20.6932 27.4258H16.6893L8.15417 5.25781H7.84167V24.457L10.6151 25.1211L10.2245 27.4258H1.53308L1.14246 25.1211L3.93542 24.457V3.96875ZM42.6815 25.1211L44.6346 24.5742L53.0917 1H58.2284L66.4901 24.5742L68.4237 25.1211L68.0331 27.4258H58.3846L57.994 25.1211L60.5721 24.5742L58.9706 19.8867H50.1229L48.4823 24.5742L51.0604 25.1211L50.6698 27.4258H43.0721L42.6815 25.1211ZM51.119 16.9766H57.994L54.7518 7.44531H54.4393L51.119 16.9766ZM76.076 3.96875L73.2831 3.30469L73.6737 1H84.9042C88.1073 1 90.5096 1.58594 92.1112 2.75781C93.7258 3.92969 94.5331 5.66146 94.5331 7.95312C94.5331 10.4141 93.6672 12.3542 91.9354 13.7734C90.2167 15.1797 88.0096 15.8828 85.3143 15.8828H81.9354V24.457L86.076 25.1211L85.6854 27.4258H73.6737L73.2831 25.1211L76.076 24.457V3.96875ZM81.9354 3.91016V12.9727H84.0839C84.8391 12.9727 85.5813 12.9206 86.3104 12.8164C87.0526 12.6992 87.632 12.569 88.0487 12.4258C88.218 11.918 88.3482 11.306 88.4393 10.5898C88.5435 9.8737 88.5956 9.18359 88.5956 8.51953C88.5956 6.95703 88.1594 5.79818 87.287 5.04297C86.4276 4.28776 85.1646 3.91016 83.4979 3.91016H81.9354Z" fill="#292929"/>
<path d="M3.93542 3.96875H4.93542V3.17864L4.16674 2.99587L3.93542 3.96875ZM1.14246 3.30469L0.156517 3.13758L1.64604e-05 4.06094L0.911142 4.27757L1.14246 3.30469ZM1.53308 1V0H0.688311L0.547142 0.832892L1.53308 1ZM12.1581 1L13.0934 0.646266L12.849 0H12.1581V1ZM19.4042 20.1602L18.4688 20.5139L18.7132 21.1602H19.4042V20.1602ZM19.7167 20.1602V21.1602H20.4169L20.6564 20.5021L19.7167 20.1602ZM26.6893 1V0H25.9891L25.7496 0.658026L26.6893 1ZM37.5292 1L38.5151 0.832892L38.3739 0H37.5292V1ZM37.9198 3.30469L38.1527 4.2772L39.062 4.05947L38.9057 3.13758L37.9198 3.30469ZM35.1464 3.96875L34.9135 2.99624L34.1464 3.17992V3.96875H35.1464ZM35.1464 24.457H34.1464V25.2459L34.9135 25.4295L35.1464 24.457ZM37.9198 25.1211L38.9057 25.2882L39.062 24.3663L38.1527 24.1486L37.9198 25.1211ZM37.5292 27.4258V28.4258H38.3739L38.5151 27.5929L37.5292 27.4258ZM26.8846 27.4258L25.8987 27.5929L26.0399 28.4258H26.8846V27.4258ZM26.494 25.1211L26.2627 24.1482L25.3516 24.3648L25.5081 25.2882L26.494 25.1211ZM29.287 24.457L29.5183 25.4299L30.287 25.2471V24.457H29.287ZM29.287 5.25781H30.287V4.25781H29.287V5.25781ZM28.9745 5.25781V4.25781H28.2806L28.0377 4.90787L28.9745 5.25781ZM20.6932 27.4258V28.4258H21.3872L21.63 27.7757L20.6932 27.4258ZM16.6893 27.4258L15.7561 27.7851L16.0028 28.4258H16.6893V27.4258ZM8.15417 5.25781L9.08739 4.8985L8.84071 4.25781H8.15417V5.25781ZM7.84167 5.25781V4.25781H6.84167V5.25781H7.84167ZM7.84167 24.457H6.84167V25.2459L7.60882 25.4295L7.84167 24.457ZM10.6151 25.1211L11.6011 25.2882L11.7573 24.3663L10.848 24.1486L10.6151 25.1211ZM10.2245 27.4258V28.4258H11.0693L11.2104 27.5929L10.2245 27.4258ZM1.53308 27.4258L0.547142 27.5929L0.688311 28.4258H1.53308V27.4258ZM1.14246 25.1211L0.911142 24.1482L1.64604e-05 24.3648L0.156517 25.2882L1.14246 25.1211ZM3.93542 24.457L4.16674 25.4299L4.93542 25.2471V24.457H3.93542ZM3.93542 3.96875L4.16674 2.99587L1.37377 2.33181L1.14246 3.30469L0.911142 4.27757L3.70411 4.94163L3.93542 3.96875ZM1.14246 3.30469L2.12839 3.4718L2.51902 1.16711L1.53308 1L0.547142 0.832892L0.156517 3.13758L1.14246 3.30469ZM1.53308 1V2H12.1581V1V0H1.53308V1ZM12.1581 1L11.2227 1.35373L18.4688 20.5139L19.4042 20.1602L20.3395 19.8064L13.0934 0.646266L12.1581 1ZM19.4042 20.1602V21.1602H19.7167V20.1602V19.1602H19.4042V20.1602ZM19.7167 20.1602L20.6564 20.5021L27.629 1.34197L26.6893 1L25.7496 0.658026L18.777 19.8182L19.7167 20.1602ZM26.6893 1V2H37.5292V1V0H26.6893V1ZM37.5292 1L36.5432 1.16711L36.9339 3.4718L37.9198 3.30469L38.9057 3.13758L38.5151 0.832892L37.5292 1ZM37.9198 3.30469L37.6869 2.33218L34.9135 2.99624L35.1464 3.96875L35.3792 4.94126L38.1527 4.2772L37.9198 3.30469ZM35.1464 3.96875H34.1464V24.457H35.1464H36.1464V3.96875H35.1464ZM35.1464 24.457L34.9135 25.4295L37.6869 26.0936L37.9198 25.1211L38.1527 24.1486L35.3792 23.4845L35.1464 24.457ZM37.9198 25.1211L36.9339 24.954L36.5432 27.2587L37.5292 27.4258L38.5151 27.5929L38.9057 25.2882L37.9198 25.1211ZM37.5292 27.4258V26.4258H26.8846V27.4258V28.4258H37.5292V27.4258ZM26.8846 27.4258L27.8706 27.2587L27.48 24.954L26.494 25.1211L25.5081 25.2882L25.8987 27.5929L26.8846 27.4258ZM26.494 25.1211L26.7253 26.094L29.5183 25.4299L29.287 24.457L29.0557 23.4842L26.2627 24.1482L26.494 25.1211ZM29.287 24.457H30.287V5.25781H29.287H28.287V24.457H29.287ZM29.287 5.25781V4.25781H28.9745V5.25781V6.25781H29.287V5.25781ZM28.9745 5.25781L28.0377 4.90787L19.7565 27.0758L20.6932 27.4258L21.63 27.7757L29.9113 5.60776L28.9745 5.25781ZM20.6932 27.4258V26.4258H16.6893V27.4258V28.4258H20.6932V27.4258ZM16.6893 27.4258L17.6225 27.0665L9.08739 4.8985L8.15417 5.25781L7.22096 5.61712L15.7561 27.7851L16.6893 27.4258ZM8.15417 5.25781V4.25781H7.84167V5.25781V6.25781H8.15417V5.25781ZM7.84167 5.25781H6.84167V24.457H7.84167H8.84167V5.25781H7.84167ZM7.84167 24.457L7.60882 25.4295L10.3823 26.0936L10.6151 25.1211L10.848 24.1486L8.07453 23.4845L7.84167 24.457ZM10.6151 25.1211L9.62917 24.954L9.23855 27.2587L10.2245 27.4258L11.2104 27.5929L11.6011 25.2882L10.6151 25.1211ZM10.2245 27.4258V26.4258H1.53308V27.4258V28.4258H10.2245V27.4258ZM1.53308 27.4258L2.51902 27.2587L2.12839 24.954L1.14246 25.1211L0.156517 25.2882L0.547142 27.5929L1.53308 27.4258ZM1.14246 25.1211L1.37377 26.094L4.16674 25.4299L3.93542 24.457L3.70411 23.4842L0.911142 24.1482L1.14246 25.1211ZM3.93542 24.457H4.93542V3.96875H3.93542H2.93542V24.457H3.93542ZM42.6815 25.1211L42.4119 24.1581L41.5452 24.4008L41.6956 25.2882L42.6815 25.1211ZM44.6346 24.5742L44.9043 25.5372L45.4015 25.3979L45.5759 24.9119L44.6346 24.5742ZM53.0917 1V0H52.388L52.1504 0.66233L53.0917 1ZM58.2284 1L59.1721 0.669267L58.9376 0H58.2284V1ZM66.4901 24.5742L65.5464 24.905L65.7182 25.3951L66.218 25.5365L66.4901 24.5742ZM68.4237 25.1211L69.4096 25.2882L69.5597 24.4031L68.6959 24.1588L68.4237 25.1211ZM68.0331 27.4258V28.4258H68.8779L69.019 27.5929L68.0331 27.4258ZM58.3846 27.4258L57.3987 27.5929L57.5399 28.4258H58.3846V27.4258ZM57.994 25.1211L57.7865 24.1429L56.8477 24.342L57.0081 25.2882L57.994 25.1211ZM60.5721 24.5742L60.7796 25.5525L61.8832 25.3184L61.5184 24.2509L60.5721 24.5742ZM58.9706 19.8867L59.9169 19.5634L59.6857 18.8867H58.9706V19.8867ZM50.1229 19.8867V18.8867H49.4134L49.1791 19.5564L50.1229 19.8867ZM48.4823 24.5742L47.5384 24.2439L47.163 25.3166L48.2748 25.5525L48.4823 24.5742ZM51.0604 25.1211L52.0464 25.2882L52.2067 24.342L51.2679 24.1429L51.0604 25.1211ZM50.6698 27.4258V28.4258H51.5146L51.6557 27.5929L50.6698 27.4258ZM43.0721 27.4258L42.0862 27.5929L42.2274 28.4258H43.0721V27.4258ZM51.119 16.9766L50.1747 16.6476L49.7117 17.9766H51.119V16.9766ZM57.994 16.9766V17.9766H59.3905L58.9407 16.6545L57.994 16.9766ZM54.7518 7.44531L55.6986 7.12327L55.4679 6.44531H54.7518V7.44531ZM54.4393 7.44531V6.44531H53.7288L53.495 7.11634L54.4393 7.44531ZM42.6815 25.1211L42.9511 26.0841L44.9043 25.5372L44.6346 24.5742L44.365 23.6113L42.4119 24.1581L42.6815 25.1211ZM44.6346 24.5742L45.5759 24.9119L54.0329 1.33767L53.0917 1L52.1504 0.66233L43.6934 24.2365L44.6346 24.5742ZM53.0917 1V2H58.2284V1V0H53.0917V1ZM58.2284 1L57.2847 1.33073L65.5464 24.905L66.4901 24.5742L67.4338 24.2435L59.1721 0.669267L58.2284 1ZM66.4901 24.5742L66.218 25.5365L68.1516 26.0833L68.4237 25.1211L68.6959 24.1588L66.7623 23.612L66.4901 24.5742ZM68.4237 25.1211L67.4378 24.954L67.0471 27.2587L68.0331 27.4258L69.019 27.5929L69.4096 25.2882L68.4237 25.1211ZM68.0331 27.4258V26.4258H58.3846V27.4258V28.4258H68.0331V27.4258ZM58.3846 27.4258L59.3706 27.2587L58.98 24.954L57.994 25.1211L57.0081 25.2882L57.3987 27.5929L58.3846 27.4258ZM57.994 25.1211L58.2015 26.0993L60.7796 25.5525L60.5721 24.5742L60.3646 23.596L57.7865 24.1429L57.994 25.1211ZM60.5721 24.5742L61.5184 24.2509L59.9169 19.5634L58.9706 19.8867L58.0243 20.21L59.6259 24.8975L60.5721 24.5742ZM58.9706 19.8867V18.8867H50.1229V19.8867V20.8867H58.9706V19.8867ZM50.1229 19.8867L49.1791 19.5564L47.5384 24.2439L48.4823 24.5742L49.4262 24.9046L51.0668 20.2171L50.1229 19.8867ZM48.4823 24.5742L48.2748 25.5525L50.8529 26.0993L51.0604 25.1211L51.2679 24.1429L48.6898 23.596L48.4823 24.5742ZM51.0604 25.1211L50.0745 24.954L49.6839 27.2587L50.6698 27.4258L51.6557 27.5929L52.0464 25.2882L51.0604 25.1211ZM50.6698 27.4258V26.4258H43.0721V27.4258V28.4258H50.6698V27.4258ZM43.0721 27.4258L44.0581 27.2587L43.6675 24.954L42.6815 25.1211L41.6956 25.2882L42.0862 27.5929L43.0721 27.4258ZM51.119 16.9766V17.9766H57.994V16.9766V15.9766H51.119V16.9766ZM57.994 16.9766L58.9407 16.6545L55.6986 7.12327L54.7518 7.44531L53.8051 7.76735L57.0473 17.2986L57.994 16.9766ZM54.7518 7.44531V6.44531H54.4393V7.44531V8.44531H54.7518V7.44531ZM54.4393 7.44531L53.495 7.11634L50.1747 16.6476L51.119 16.9766L52.0634 17.3055L55.3837 7.77428L54.4393 7.44531ZM76.076 3.96875H77.076V3.17864L76.3074 2.99587L76.076 3.96875ZM73.2831 3.30469L72.2971 3.13758L72.1406 4.06094L73.0518 4.27757L73.2831 3.30469ZM73.6737 1V0H72.8289L72.6878 0.832892L73.6737 1ZM92.1112 2.75781L91.5207 3.56485L91.5238 3.56711L92.1112 2.75781ZM91.9354 13.7734L92.5687 14.5474L92.5693 14.5469L91.9354 13.7734ZM81.9354 15.8828V14.8828H80.9354V15.8828H81.9354ZM81.9354 24.457H80.9354V25.3094L81.7771 25.4444L81.9354 24.457ZM86.076 25.1211L87.062 25.2882L87.2306 24.2935L86.2344 24.1337L86.076 25.1211ZM85.6854 27.4258V28.4258H86.5302L86.6714 27.5929L85.6854 27.4258ZM73.6737 27.4258L72.6878 27.5929L72.8289 28.4258H73.6737V27.4258ZM73.2831 25.1211L73.0518 24.1482L72.1406 24.3648L72.2971 25.2882L73.2831 25.1211ZM76.076 24.457L76.3074 25.4299L77.076 25.2471V24.457H76.076ZM81.9354 3.91016V2.91016H80.9354V3.91016H81.9354ZM81.9354 12.9727H80.9354V13.9727H81.9354V12.9727ZM86.3104 12.8164L86.4518 13.8064L86.4591 13.8053L86.4664 13.8042L86.3104 12.8164ZM88.0487 12.4258L88.3738 13.3715L88.8411 13.2108L88.9974 12.742L88.0487 12.4258ZM88.4393 10.5898L87.4497 10.4459L87.4485 10.4547L87.4473 10.4636L88.4393 10.5898ZM87.287 5.04297L86.6269 5.79415L86.6325 5.79903L87.287 5.04297ZM76.076 3.96875L76.3074 2.99587L73.5144 2.33181L73.2831 3.30469L73.0518 4.27757L75.8447 4.94163L76.076 3.96875ZM73.2831 3.30469L74.269 3.4718L74.6596 1.16711L73.6737 1L72.6878 0.832892L72.2971 3.13758L73.2831 3.30469ZM73.6737 1V2H84.9042V1V0H73.6737V1ZM84.9042 1V2C88.0149 2 90.167 2.57431 91.5207 3.56484L92.1112 2.75781L92.7017 1.95078C90.8523 0.59756 88.1997 0 84.9042 0V1ZM92.1112 2.75781L91.5238 3.56711C92.838 4.52094 93.5331 5.92714 93.5331 7.95312H94.5331H95.5331C95.5331 5.39577 94.6136 3.33844 92.6986 1.94851L92.1112 2.75781ZM94.5331 7.95312H93.5331C93.5331 10.1482 92.7767 11.7911 91.3016 13L91.9354 13.7734L92.5693 14.5469C94.5577 12.9173 95.5331 10.68 95.5331 7.95312H94.5331ZM91.9354 13.7734L91.3022 12.9995C89.798 14.2302 87.8299 14.8828 85.3143 14.8828V15.8828V16.8828C88.1894 16.8828 90.6353 16.1292 92.5687 14.5474L91.9354 13.7734ZM85.3143 15.8828V14.8828H81.9354V15.8828V16.8828H85.3143V15.8828ZM81.9354 15.8828H80.9354V24.457H81.9354H82.9354V15.8828H81.9354ZM81.9354 24.457L81.7771 25.4444L85.9177 26.1085L86.076 25.1211L86.2344 24.1337L82.0938 23.4696L81.9354 24.457ZM86.076 25.1211L85.0901 24.954L84.6995 27.2587L85.6854 27.4258L86.6714 27.5929L87.062 25.2882L86.076 25.1211ZM85.6854 27.4258V26.4258H73.6737V27.4258V28.4258H85.6854V27.4258ZM73.6737 27.4258L74.6596 27.2587L74.269 24.954L73.2831 25.1211L72.2971 25.2882L72.6878 27.5929L73.6737 27.4258ZM73.2831 25.1211L73.5144 26.094L76.3074 25.4299L76.076 24.457L75.8447 23.4842L73.0518 24.1482L73.2831 25.1211ZM76.076 24.457H77.076V3.96875H76.076H75.076V24.457H76.076ZM81.9354 3.91016H80.9354V12.9727H81.9354H82.9354V3.91016H81.9354ZM81.9354 12.9727V13.9727H84.0839V12.9727V11.9727H81.9354V12.9727ZM84.0839 12.9727V13.9727C84.8852 13.9727 85.6747 13.9174 86.4518 13.8064L86.3104 12.8164L86.169 11.8265C85.4878 11.9238 84.7929 11.9727 84.0839 11.9727V12.9727ZM86.3104 12.8164L86.4664 13.8042C87.232 13.6833 87.877 13.5422 88.3738 13.3715L88.0487 12.4258L87.7236 11.4801C87.3871 11.5958 86.8732 11.7152 86.1545 11.8286L86.3104 12.8164ZM88.0487 12.4258L88.9974 12.742C89.1929 12.1553 89.3346 11.4761 89.4313 10.7161L88.4393 10.5898L87.4473 10.4636C87.3618 11.1359 87.243 11.6806 87.1 12.1096L88.0487 12.4258ZM88.4393 10.5898L89.4289 10.7338C89.5394 9.97417 89.5956 9.23583 89.5956 8.51953H88.5956H87.5956C87.5956 9.13136 87.5476 9.77322 87.4497 10.4459L88.4393 10.5898ZM88.5956 8.51953H89.5956C89.5956 6.77491 89.1036 5.29292 87.9415 4.28691L87.287 5.04297L86.6325 5.79903C87.2152 6.30343 87.5956 7.13916 87.5956 8.51953H88.5956ZM87.287 5.04297L87.9471 4.2918C86.8373 3.31655 85.2987 2.91016 83.4979 2.91016V3.91016V4.91016C85.0305 4.91016 86.0179 5.25897 86.6269 5.79413L87.287 5.04297ZM83.4979 3.91016V2.91016H81.9354V3.91016V4.91016H83.4979V3.91016Z" fill="#292929" mask="url(#path-1-outside-1_1_14)"/>
</svg>
